<?xml version="1.0" encoding="UTF-8" standalone="no"?>
<!DOCTYPE svg PUBLIC "-//W3C//DTD SVG 1.1//EN"
 "http://www.w3.org/Graphics/SVG/1.1/DTD/svg11.dtd">
<!-- Generated by graphviz version 2.43.0 (0)
 -->
<!-- Title: geometry.h Pages: 1 -->
<svg width="337pt" height="84pt"
 viewBox="0.00 0.00 337.00 84.00" xmlns="http://www.w3.org/2000/svg" xmlns:xlink="http://www.w3.org/1999/xlink">
<g id="graph0" class="graph" transform="scale(1 1) rotate(0) translate(4 80)">
<title>geometry.h</title>
<!-- Node1 -->
<g id="node1" class="node">
<title>Node1</title>
<g id="a_node1"><a xlink:title="This file contains information on the geometry of the local lattice, block decomposed geometry,...">
<polygon fill="#bfbfbf" stroke="black" points="118,-56.5 118,-75.5 189,-75.5 189,-56.5 118,-56.5"/>
<text text-anchor="middle" x="153.5" y="-63.5" font-family="Helvetica,sans-Serif" font-size="10.00">geometry.h</text>
</a>
</g>
</g>
<!-- Node2 -->
<g id="node2" class="node">
<title>Node2</title>
<g id="a_node2"><a xlink:href="../../d4/d3d/geometry__check_8h.html" target="_top" xlink:title="Validity checks on the geometry of spinor fields that are passed as function parameters....">
<polygon fill="none" stroke="black" points="0,-0.5 0,-19.5 107,-19.5 107,-0.5 0,-0.5"/>
<text text-anchor="middle" x="53.5" y="-7.5" font-family="Helvetica,sans-Serif" font-size="10.00">geometry_check.h</text>
</a>
</g>
</g>
<!-- Node1&#45;&gt;Node2 -->
<g id="edge1" class="edge">
<title>Node1&#45;&gt;Node2</title>
<path fill="none" stroke="midnightblue" d="M123.28,-51.86C103.37,-41.85 78.63,-28.35 64.42,-19.65"/>
<polygon fill="midnightblue" stroke="midnightblue" points="121.8,-55.03 132.32,-56.32 124.9,-48.76 121.8,-55.03"/>
</g>
<!-- Node3 -->
<g id="node3" class="node">
<title>Node3</title>
<g id="a_node3"><a xlink:href="../../d2/d49/global_8h_source.html" target="_top" xlink:title=" ">
<polygon fill="none" stroke="red" points="125.5,-0.5 125.5,-19.5 181.5,-19.5 181.5,-0.5 125.5,-0.5"/>
<text text-anchor="middle" x="153.5" y="-7.5" font-family="Helvetica,sans-Serif" font-size="10.00">global.h</text>
</a>
</g>
</g>
<!-- Node1&#45;&gt;Node3 -->
<g id="edge3" class="edge">
<title>Node1&#45;&gt;Node3</title>
<path fill="none" stroke="midnightblue" d="M153.5,-45.8C153.5,-36.91 153.5,-26.78 153.5,-19.75"/>
<polygon fill="midnightblue" stroke="midnightblue" points="150,-46.08 153.5,-56.08 157,-46.08 150,-46.08"/>
</g>
<!-- Node9 -->
<g id="node4" class="node">
<title>Node9</title>
<g id="a_node4"><a xlink:href="../../d0/d39/init__gpu_8c.html" target="_top" xlink:title="Functions initialize the GPU for the simulation and print collective information on cluster drivers,...">
<polygon fill="none" stroke="black" points="199.5,-0.5 199.5,-19.5 263.5,-19.5 263.5,-0.5 199.5,-0.5"/>
<text text-anchor="middle" x="231.5" y="-7.5" font-family="Helvetica,sans-Serif" font-size="10.00">init_gpu.c</text>
</a>
</g>
</g>
<!-- Node1&#45;&gt;Node9 -->
<g id="edge4" class="edge">
<title>Node1&#45;&gt;Node9</title>
<path fill="none" stroke="midnightblue" d="M174.27,-50.62C188.52,-40.76 206.96,-27.99 219,-19.65"/>
<polygon fill="midnightblue" stroke="midnightblue" points="172.26,-47.75 166.03,-56.32 176.25,-53.51 172.26,-47.75"/>
</g>
<!-- Node10 -->
<g id="node5" class="node">
<title>Node10</title>
<g id="a_node5"><a xlink:href="../../d9/dce/libhr_8h_source.html" target="_top" xlink:title=" ">
<polygon fill="none" stroke="black" points="282,-0.5 282,-19.5 329,-19.5 329,-0.5 282,-0.5"/>
<text text-anchor="middle" x="305.5" y="-7.5" font-family="Helvetica,sans-Serif" font-size="10.00">libhr.h</text>
</a>
</g>
</g>
<!-- Node1&#45;&gt;Node10 -->
<g id="edge5" class="edge">
<title>Node1&#45;&gt;Node10</title>
<path fill="none" stroke="midnightblue" d="M187.17,-53.04C215.77,-42.88 256.11,-28.55 281.53,-19.52"/>
<polygon fill="midnightblue" stroke="midnightblue" points="185.84,-49.8 177.58,-56.44 188.18,-56.39 185.84,-49.8"/>
</g>
<!-- Node2&#45;&gt;Node1 -->
<g id="edge2" class="edge">
<title>Node2&#45;&gt;Node1</title>
<path fill="none" stroke="midnightblue" d="M83.67,-24.11C103.57,-34.12 128.32,-47.62 142.55,-56.32"/>
<polygon fill="midnightblue" stroke="midnightblue" points="85.15,-20.94 74.64,-19.65 82.05,-27.22 85.15,-20.94"/>
</g>
</g>
</svg>
