<?xml version="1.0" encoding="UTF-8" standalone="no"?>
<!DOCTYPE svg PUBLIC "-//W3C//DTD SVG 1.1//EN"
 "http://www.w3.org/Graphics/SVG/1.1/DTD/svg11.dtd">
<!-- Generated by graphviz version 2.43.0 (0)
 -->
<!-- Title: gpu.h Pages: 1 -->
<svg width="590pt" height="140pt"
 viewBox="0.00 0.00 589.50 140.00" xmlns="http://www.w3.org/2000/svg" xmlns:xlink="http://www.w3.org/1999/xlink">
<g id="graph0" class="graph" transform="scale(1 1) rotate(0) translate(4 136)">
<title>gpu.h</title>
<!-- Node1 -->
<g id="node1" class="node">
<title>Node1</title>
<g id="a_node1"><a xlink:title="Basic gpu imports and structs. Include this in files that define GPU logic.">
<polygon fill="#bfbfbf" stroke="black" points="321.5,-112.5 321.5,-131.5 365.5,-131.5 365.5,-112.5 321.5,-112.5"/>
<text text-anchor="middle" x="343.5" y="-119.5" font-family="Helvetica,sans-Serif" font-size="10.00">gpu.h</text>
</a>
</g>
</g>
<!-- Node2 -->
<g id="node2" class="node">
<title>Node2</title>
<g id="a_node2"><a xlink:href="../../d8/d58/error__gpu_8c.html" target="_top" xlink:title="Error checking on the GPU.">
<polygon fill="none" stroke="black" points="0,-56.5 0,-75.5 71,-75.5 71,-56.5 0,-56.5"/>
<text text-anchor="middle" x="35.5" y="-63.5" font-family="Helvetica,sans-Serif" font-size="10.00">error_gpu.c</text>
</a>
</g>
</g>
<!-- Node1&#45;&gt;Node2 -->
<g id="edge1" class="edge">
<title>Node1&#45;&gt;Node2</title>
<path fill="none" stroke="midnightblue" d="M311.17,-115.77C261.5,-107.66 163.46,-91.39 80.5,-76 77.52,-75.45 74.44,-74.86 71.34,-74.26"/>
<polygon fill="midnightblue" stroke="midnightblue" points="310.86,-119.26 321.3,-117.42 311.99,-112.35 310.86,-119.26"/>
</g>
<!-- Node3 -->
<g id="node3" class="node">
<title>Node3</title>
<g id="a_node3"><a xlink:href="../../d2/d41/error__gpu_8h.html" target="_top" xlink:title="Error checking for GPU.">
<polygon fill="none" stroke="red" points="89.5,-56.5 89.5,-75.5 161.5,-75.5 161.5,-56.5 89.5,-56.5"/>
<text text-anchor="middle" x="125.5" y="-63.5" font-family="Helvetica,sans-Serif" font-size="10.00">error_gpu.h</text>
</a>
</g>
</g>
<!-- Node1&#45;&gt;Node3 -->
<g id="edge2" class="edge">
<title>Node1&#45;&gt;Node3</title>
<path fill="none" stroke="midnightblue" d="M311.54,-113.08C271.13,-103.07 201.81,-85.9 160.16,-75.59"/>
<polygon fill="midnightblue" stroke="midnightblue" points="310.85,-116.52 321.4,-115.53 312.53,-109.72 310.85,-116.52"/>
</g>
<!-- Node17 -->
<g id="node4" class="node">
<title>Node17</title>
<g id="a_node4"><a xlink:href="../../de/d2e/geometry__gpu__init_8h.html" target="_top" xlink:title="Initialization functions, that determine all important parameters of the geometry,...">
<polygon fill="none" stroke="red" points="180,-56.5 180,-75.5 297,-75.5 297,-56.5 180,-56.5"/>
<text text-anchor="middle" x="238.5" y="-63.5" font-family="Helvetica,sans-Serif" font-size="10.00">geometry_gpu_init.h</text>
</a>
</g>
</g>
<!-- Node1&#45;&gt;Node17 -->
<g id="edge3" class="edge">
<title>Node1&#45;&gt;Node17</title>
<path fill="none" stroke="midnightblue" d="M317.69,-107.73C298.25,-97.73 272.15,-84.31 255.33,-75.65"/>
<polygon fill="midnightblue" stroke="midnightblue" points="316.14,-110.86 326.63,-112.32 319.34,-104.64 316.14,-110.86"/>
</g>
<!-- Node8 -->
<g id="node5" class="node">
<title>Node8</title>
<g id="a_node5"><a xlink:href="../../d2/d49/global_8h_source.html" target="_top" xlink:title=" ">
<polygon fill="none" stroke="red" points="315.5,-56.5 315.5,-75.5 371.5,-75.5 371.5,-56.5 315.5,-56.5"/>
<text text-anchor="middle" x="343.5" y="-63.5" font-family="Helvetica,sans-Serif" font-size="10.00">global.h</text>
</a>
</g>
</g>
<!-- Node1&#45;&gt;Node8 -->
<g id="edge4" class="edge">
<title>Node1&#45;&gt;Node8</title>
<path fill="none" stroke="midnightblue" d="M343.5,-101.8C343.5,-92.91 343.5,-82.78 343.5,-75.75"/>
<polygon fill="midnightblue" stroke="midnightblue" points="340,-102.08 343.5,-112.08 347,-102.08 340,-102.08"/>
</g>
<!-- Node12 -->
<g id="node6" class="node">
<title>Node12</title>
<g id="a_node6"><a xlink:href="../../d8/d1f/libhr__core_8h_source.html" target="_top" xlink:title=" ">
<polygon fill="none" stroke="red" points="334.5,-0.5 334.5,-19.5 408.5,-19.5 408.5,-0.5 334.5,-0.5"/>
<text text-anchor="middle" x="371.5" y="-7.5" font-family="Helvetica,sans-Serif" font-size="10.00">libhr_core.h</text>
</a>
</g>
</g>
<!-- Node1&#45;&gt;Node12 -->
<g id="edge8" class="edge">
<title>Node1&#45;&gt;Node12</title>
<path fill="none" stroke="midnightblue" d="M361.14,-105.15C368.64,-97.23 376.56,-87 380.5,-76 387.42,-56.7 380.16,-32.4 375.24,-19.68"/>
<polygon fill="midnightblue" stroke="midnightblue" points="358.61,-102.73 353.94,-112.24 363.52,-107.72 358.61,-102.73"/>
</g>
<!-- Node16 -->
<g id="node7" class="node">
<title>Node16</title>
<g id="a_node7"><a xlink:href="../../d5/ddc/gpu__info_8c.html" target="_top" xlink:title="Prints information on available hardware and software on the cluster relating to GPUs.">
<polygon fill="none" stroke="black" points="428,-56.5 428,-75.5 495,-75.5 495,-56.5 428,-56.5"/>
<text text-anchor="middle" x="461.5" y="-63.5" font-family="Helvetica,sans-Serif" font-size="10.00">gpu_info.c</text>
</a>
</g>
</g>
<!-- Node1&#45;&gt;Node16 -->
<g id="edge6" class="edge">
<title>Node1&#45;&gt;Node16</title>
<path fill="none" stroke="midnightblue" d="M371.4,-108.23C393.47,-98.13 423.68,-84.31 442.89,-75.52"/>
<polygon fill="midnightblue" stroke="midnightblue" points="369.83,-105.1 362.2,-112.44 372.75,-111.46 369.83,-105.1"/>
</g>
<!-- Node18 -->
<g id="node8" class="node">
<title>Node18</title>
<g id="a_node8"><a xlink:href="../../da/dee/gpu__info_8h.html" target="_top" xlink:title="Functions that print collective information on cluster drivers, necessary software and available hard...">
<polygon fill="none" stroke="red" points="513.5,-56.5 513.5,-75.5 581.5,-75.5 581.5,-56.5 513.5,-56.5"/>
<text text-anchor="middle" x="547.5" y="-63.5" font-family="Helvetica,sans-Serif" font-size="10.00">gpu_info.h</text>
</a>
</g>
</g>
<!-- Node1&#45;&gt;Node18 -->
<g id="edge7" class="edge">
<title>Node1&#45;&gt;Node18</title>
<path fill="none" stroke="midnightblue" d="M375.78,-112.45C413.96,-102.35 477.12,-85.63 515.28,-75.53"/>
<polygon fill="midnightblue" stroke="midnightblue" points="374.49,-109.18 365.72,-115.12 376.28,-115.94 374.49,-109.18"/>
</g>
<!-- Node8&#45;&gt;Node12 -->
<g id="edge5" class="edge">
<title>Node8&#45;&gt;Node12</title>
<path fill="none" stroke="midnightblue" d="M352.84,-46.98C357.59,-37.82 363.16,-27.09 366.96,-19.75"/>
<polygon fill="midnightblue" stroke="midnightblue" points="349.62,-45.59 348.12,-56.08 355.83,-48.82 349.62,-45.59"/>
</g>
</g>
</svg>
