<?xml version="1.0" encoding="UTF-8" standalone="no"?>
<!DOCTYPE svg PUBLIC "-//W3C//DTD SVG 1.1//EN"
 "http://www.w3.org/Graphics/SVG/1.1/DTD/svg11.dtd">
<!-- Generated by graphviz version 2.43.0 (0)
 -->
<!-- Title: new_geometry.h Pages: 1 -->
<svg width="142pt" height="140pt"
 viewBox="0.00 0.00 141.50 140.00" xmlns="http://www.w3.org/2000/svg" xmlns:xlink="http://www.w3.org/1999/xlink">
<g id="graph0" class="graph" transform="scale(1 1) rotate(0) translate(4 136)">
<title>new_geometry.h</title>
<!-- Node1 -->
<g id="node1" class="node">
<title>Node1</title>
<g id="a_node1"><a xlink:title="Functions needed for the new geometry implementation that will replace the current geometry in the fu...">
<polygon fill="#bfbfbf" stroke="black" points="0,-112.5 0,-131.5 97,-131.5 97,-112.5 0,-112.5"/>
<text text-anchor="middle" x="48.5" y="-119.5" font-family="Helvetica,sans-Serif" font-size="10.00">new_geometry.h</text>
</a>
</g>
</g>
<!-- Node2 -->
<g id="node2" class="node">
<title>Node2</title>
<g id="a_node2"><a xlink:href="../../d4/d67/geometry_8h.html" target="_top" xlink:title="This file contains information on the geometry of the local lattice, block decomposed geometry,...">
<polygon fill="none" stroke="red" points="13,-0.5 13,-19.5 84,-19.5 84,-0.5 13,-0.5"/>
<text text-anchor="middle" x="48.5" y="-7.5" font-family="Helvetica,sans-Serif" font-size="10.00">geometry.h</text>
</a>
</g>
</g>
<!-- Node1&#45;&gt;Node2 -->
<g id="edge1" class="edge">
<title>Node1&#45;&gt;Node2</title>
<path fill="none" stroke="midnightblue" d="M39.56,-103.2C35.98,-95.11 32.29,-85.3 30.5,-76 26.56,-55.53 36.8,-32.1 43.41,-19.73"/>
<polygon fill="midnightblue" stroke="midnightblue" points="36.44,-104.79 43.88,-112.34 42.77,-101.8 36.44,-104.79"/>
</g>
<!-- Node12 -->
<g id="node3" class="node">
<title>Node12</title>
<g id="a_node3"><a xlink:href="../../d9/d46/geometry__init_8h.html" target="_top" xlink:title="Initialization functions, that determine all important parameters of the geometry,...">
<polygon fill="none" stroke="black" points="39.5,-56.5 39.5,-75.5 133.5,-75.5 133.5,-56.5 39.5,-56.5"/>
<text text-anchor="middle" x="86.5" y="-63.5" font-family="Helvetica,sans-Serif" font-size="10.00">geometry_init.h</text>
</a>
</g>
</g>
<!-- Node1&#45;&gt;Node12 -->
<g id="edge2" class="edge">
<title>Node1&#45;&gt;Node12</title>
<path fill="none" stroke="midnightblue" d="M60.56,-103.86C67.14,-94.5 75.01,-83.33 80.34,-75.75"/>
<polygon fill="midnightblue" stroke="midnightblue" points="57.67,-101.89 54.77,-112.08 63.39,-105.92 57.67,-101.89"/>
</g>
<!-- Node12&#45;&gt;Node2 -->
<g id="edge3" class="edge">
<title>Node12&#45;&gt;Node2</title>
<path fill="none" stroke="midnightblue" d="M74.44,-47.86C67.86,-38.5 59.99,-27.33 54.66,-19.75"/>
<polygon fill="midnightblue" stroke="midnightblue" points="71.61,-49.92 80.23,-56.08 77.33,-45.89 71.61,-49.92"/>
</g>
</g>
</svg>
