<?xml version="1.0" encoding="UTF-8" standalone="no"?>
<!DOCTYPE svg PUBLIC "-//W3C//DTD SVG 1.1//EN"
 "http://www.w3.org/Graphics/SVG/1.1/DTD/svg11.dtd">
<!-- Generated by graphviz version 2.43.0 (0)
 -->
<!-- Title: Include Pages: 1 -->
<!--zoomable 292 -->
<svg id="main" version="1.1" xmlns="http://www.w3.org/2000/svg" xmlns:xlink="http://www.w3.org/1999/xlink" xml:space="preserve" onload="init(evt)">
<style type="text/css"><![CDATA[
.edge:hover path { stroke: red; }
.edge:hover polygon { stroke: red; fill: red; }
]]></style>
<script type="text/javascript"><![CDATA[
var edges = document.getElementsByTagName('g');
if (edges && edges.length) {
  for (var i=0;i<edges.length;i++) {
    if (edges[i].id.substr(0,4)=='edge') {
      edges[i].setAttribute('class','edge');
    }
  }
}
]]></script>
        <defs>
                <circle id="rim" cx="0" cy="0" r="7"/>
                <circle id="rim2" cx="0" cy="0" r="3.5"/>
                <g id="zoomPlus">
                        <use xlink:href="#rim" fill="#404040">
                                <set attributeName="fill" to="#808080" begin="zoomplus.mouseover" end="zoomplus.mouseout"/>
                        </use>
                        <path d="M-4,0h8M0,-4v8" fill="none" stroke="white" stroke-width="1.5" pointer-events="none"/>
                </g>
                <g id="zoomMin">
                        <use xlink:href="#rim" fill="#404040">
                                <set attributeName="fill" to="#808080" begin="zoomminus.mouseover" end="zoomminus.mouseout"/>
                        </use>
                        <path d="M-4,0h8" fill="none" stroke="white" stroke-width="1.5" pointer-events="none"/>
                </g>
                <g id="dirArrow">
                        <path fill="none" stroke="white" stroke-width="1.5" d="M0,-3.0v7 M-2.5,-0.5L0,-3.0L2.5,-0.5"/>
                </g>
               <g id="resetDef">
                       <use xlink:href="#rim2" fill="#404040">
                               <set attributeName="fill" to="#808080" begin="reset.mouseover" end="reset.mouseout"/>
                       </use>
               </g>
        </defs>

<script type="text/javascript">
var viewWidth = 674;
var viewHeight = 292;
var sectionId = 'dynsection-0';
</script>
<script xlink:href="svgpan.js"/>
<svg id="graph" class="graph">
<g id="viewport">
<title>Include</title>
<g id="clust1" class="cluster">
<title>clusterdir_856524284ebe840938865dc061f982fb</title>
<g id="a_clust1"><a xlink:href="dir_856524284ebe840938865dc061f982fb.html" target="_top">
<polygon fill="#daedff" stroke="#404040" stroke-width="2" points="8,-8 8,-276 658,-276 658,-8 8,-8"/>
</a>
</g>
</g>
<!-- dir_856524284ebe840938865dc061f982fb -->
<g id="node1" class="node">
<title>dir_856524284ebe840938865dc061f982fb</title>
<text text-anchor="middle" x="490" y="-247.5" font-family="Helvetica,sans-Serif" font-size="10.00">Include</text>
</g>
<!-- dir_0599d141b1a2e9e9007ecef8e4a97773 -->
<g id="node2" class="node">
<title>dir_0599d141b1a2e9e9007ecef8e4a97773</title>
<g id="a_node2"><a xlink:href="dir_0599d141b1a2e9e9007ecef8e4a97773.html" target="_top" xlink:title="Core">
<polygon fill="#4ea9ff" stroke="#404040" points="434,-124 380,-124 380,-88 434,-88 434,-124"/>
<text text-anchor="middle" x="407" y="-103.5" font-family="Helvetica,sans-Serif" font-size="10.00">Core</text>
</a>
</g>
</g>
<!-- dir_856524284ebe840938865dc061f982fb&#45;&gt;dir_0599d141b1a2e9e9007ecef8e4a97773 -->
<g id="edge2" class="edge">
<title>dir_856524284ebe840938865dc061f982fb&#45;&gt;dir_0599d141b1a2e9e9007ecef8e4a97773</title>
<path fill="none" stroke="black" d="M462.9,-236.52C446.78,-227.6 427.48,-214 417,-196 406.21,-177.47 404.14,-153.07 404.53,-134.51"/>
<polygon fill="black" stroke="black" points="408.04,-134.49 405,-124.34 401.04,-134.17 408.04,-134.49"/>
<g id="a_edge2&#45;headlabel"><a xlink:href="dir_000007_000000.html" target="_top" xlink:title="56">
<text text-anchor="middle" x="410.71" y="-135.71" font-family="Helvetica,sans-Serif" font-size="10.00">56</text>
</a>
</g>
</g>
<!-- dir_e3c4ca29053b6f585d0dd3b57d70ab70 -->
<g id="node3" class="node">
<title>dir_e3c4ca29053b6f585d0dd3b57d70ab70</title>
<g id="a_node3"><a xlink:href="dir_e3c4ca29053b6f585d0dd3b57d70ab70.html" target="_top" xlink:title="Error">
<polygon fill="#4ea9ff" stroke="#404040" points="480,-196 426,-196 426,-160 480,-160 480,-196"/>
<text text-anchor="middle" x="453" y="-175.5" font-family="Helvetica,sans-Serif" font-size="10.00">Error</text>
</a>
</g>
</g>
<!-- dir_856524284ebe840938865dc061f982fb&#45;&gt;dir_e3c4ca29053b6f585d0dd3b57d70ab70 -->
<g id="edge6" class="edge">
<title>dir_856524284ebe840938865dc061f982fb&#45;&gt;dir_e3c4ca29053b6f585d0dd3b57d70ab70</title>
<path fill="none" stroke="black" d="M480.85,-231.7C476.6,-223.64 471.44,-213.89 466.73,-204.98"/>
<polygon fill="black" stroke="black" points="469.81,-203.31 462.04,-196.1 463.62,-206.58 469.81,-203.31"/>
<g id="a_edge6&#45;headlabel"><a xlink:href="dir_000007_000003.html" target="_top" xlink:title="2">
<text text-anchor="middle" x="474" y="-202.66" font-family="Helvetica,sans-Serif" font-size="10.00">2</text>
</a>
</g>
</g>
<!-- dir_6e870ef65178f351a0558df8a56907f0 -->
<g id="node4" class="node">
<title>dir_6e870ef65178f351a0558df8a56907f0</title>
<g id="a_node4"><a xlink:href="dir_6e870ef65178f351a0558df8a56907f0.html" target="_top" xlink:title="Geometry">
<polygon fill="#4ea9ff" stroke="#404040" points="537.5,-52 472.5,-52 472.5,-16 537.5,-16 537.5,-52"/>
<text text-anchor="middle" x="505" y="-31.5" font-family="Helvetica,sans-Serif" font-size="10.00">Geometry</text>
</a>
</g>
</g>
<!-- dir_856524284ebe840938865dc061f982fb&#45;&gt;dir_6e870ef65178f351a0558df8a56907f0 -->
<g id="edge4" class="edge">
<title>dir_856524284ebe840938865dc061f982fb&#45;&gt;dir_6e870ef65178f351a0558df8a56907f0</title>
<path fill="none" stroke="black" d="M517.29,-248.21C552.18,-245.55 611.38,-235.15 639,-196 676.07,-143.48 598.05,-86.72 546.21,-56.62"/>
<polygon fill="black" stroke="black" points="547.92,-53.57 537.5,-51.67 544.47,-59.66 547.92,-53.57"/>
<g id="a_edge4&#45;headlabel"><a xlink:href="dir_000007_000005.html" target="_top" xlink:title="14">
<text text-anchor="middle" x="552.45" y="-50.38" font-family="Helvetica,sans-Serif" font-size="10.00">14</text>
</a>
</g>
</g>
<!-- dir_4dbfcc87b9e83ca48e7e48cfedba2860 -->
<g id="node5" class="node">
<title>dir_4dbfcc87b9e83ca48e7e48cfedba2860</title>
<g id="a_node5"><a xlink:href="dir_4dbfcc87b9e83ca48e7e48cfedba2860.html" target="_top" xlink:title="Inverters">
<polygon fill="#4ea9ff" stroke="#404040" points="558,-196 498,-196 498,-160 558,-160 558,-196"/>
<text text-anchor="middle" x="528" y="-175.5" font-family="Helvetica,sans-Serif" font-size="10.00">Inverters</text>
</a>
</g>
</g>
<!-- dir_856524284ebe840938865dc061f982fb&#45;&gt;dir_4dbfcc87b9e83ca48e7e48cfedba2860 -->
<g id="edge3" class="edge">
<title>dir_856524284ebe840938865dc061f982fb&#45;&gt;dir_4dbfcc87b9e83ca48e7e48cfedba2860</title>
<path fill="none" stroke="black" d="M499.39,-231.7C503.76,-223.64 509.06,-213.89 513.9,-204.98"/>
<polygon fill="black" stroke="black" points="517.02,-206.56 518.71,-196.1 510.87,-203.22 517.02,-206.56"/>
<g id="a_edge3&#45;headlabel"><a xlink:href="dir_000007_000008.html" target="_top" xlink:title="1">
<text text-anchor="middle" x="517.8" y="-208.58" font-family="Helvetica,sans-Serif" font-size="10.00">1</text>
</a>
</g>
</g>
<!-- dir_042917ff93cbe8fd08a35dc3a365551a -->
<g id="node6" class="node">
<title>dir_042917ff93cbe8fd08a35dc3a365551a</title>
<g id="a_node6"><a xlink:href="dir_042917ff93cbe8fd08a35dc3a365551a.html" target="_top" xlink:title="IO">
<polygon fill="#4ea9ff" stroke="#404040" points="388,-196 334,-196 334,-160 388,-160 388,-196"/>
<text text-anchor="middle" x="361" y="-175.5" font-family="Helvetica,sans-Serif" font-size="10.00">IO</text>
</a>
</g>
</g>
<!-- dir_856524284ebe840938865dc061f982fb&#45;&gt;dir_042917ff93cbe8fd08a35dc3a365551a -->
<g id="edge1" class="edge">
<title>dir_856524284ebe840938865dc061f982fb&#45;&gt;dir_042917ff93cbe8fd08a35dc3a365551a</title>
<path fill="none" stroke="black" d="M462.96,-234.33C443.78,-223.92 417.84,-209.84 396.92,-198.49"/>
<polygon fill="black" stroke="black" points="398.47,-195.35 388.01,-193.65 395.13,-201.5 398.47,-195.35"/>
<g id="a_edge1&#45;headlabel"><a xlink:href="dir_000007_000010.html" target="_top" xlink:title="1">
<text text-anchor="middle" x="402.98" y="-192.07" font-family="Helvetica,sans-Serif" font-size="10.00">1</text>
</a>
</g>
</g>
<!-- dir_91ce8992212d64b1bc85f2ed078c9c66 -->
<g id="node12" class="node">
<title>dir_91ce8992212d64b1bc85f2ed078c9c66</title>
<g id="a_node12"><a xlink:href="dir_91ce8992212d64b1bc85f2ed078c9c66.html" target="_top" xlink:title="Utils">
<polygon fill="#4ea9ff" stroke="#404040" points="630,-196 576,-196 576,-160 630,-160 630,-196"/>
<text text-anchor="middle" x="603" y="-175.5" font-family="Helvetica,sans-Serif" font-size="10.00">Utils</text>
</a>
</g>
</g>
<!-- dir_856524284ebe840938865dc061f982fb&#45;&gt;dir_91ce8992212d64b1bc85f2ed078c9c66 -->
<g id="edge5" class="edge">
<title>dir_856524284ebe840938865dc061f982fb&#45;&gt;dir_91ce8992212d64b1bc85f2ed078c9c66</title>
<path fill="none" stroke="black" d="M517.07,-232.23C532.05,-222.95 550.87,-211.29 567.07,-201.26"/>
<polygon fill="black" stroke="black" points="569.1,-204.11 575.76,-195.87 565.42,-198.16 569.1,-204.11"/>
<g id="a_edge5&#45;headlabel"><a xlink:href="dir_000007_000025.html" target="_top" xlink:title="1">
<text text-anchor="middle" x="567.54" y="-205.92" font-family="Helvetica,sans-Serif" font-size="10.00">1</text>
</a>
</g>
</g>
<!-- dir_0599d141b1a2e9e9007ecef8e4a97773&#45;&gt;dir_6e870ef65178f351a0558df8a56907f0 -->
<g id="edge7" class="edge">
<title>dir_0599d141b1a2e9e9007ecef8e4a97773&#45;&gt;dir_6e870ef65178f351a0558df8a56907f0</title>
<path fill="none" stroke="black" d="M425.31,-87.7C436.96,-78.71 452.34,-67.61 466.53,-57.92"/>
<polygon fill="black" stroke="black" points="468.82,-60.6 475.16,-52.1 464.91,-54.79 468.82,-60.6"/>
<g id="a_edge7&#45;headlabel"><a xlink:href="dir_000000_000005.html" target="_top" xlink:title="1">
<text text-anchor="middle" x="467.43" y="-62.46" font-family="Helvetica,sans-Serif" font-size="10.00">1</text>
</a>
</g>
</g>
<!-- dir_e3c4ca29053b6f585d0dd3b57d70ab70&#45;&gt;dir_0599d141b1a2e9e9007ecef8e4a97773 -->
<g id="edge8" class="edge">
<title>dir_e3c4ca29053b6f585d0dd3b57d70ab70&#45;&gt;dir_0599d141b1a2e9e9007ecef8e4a97773</title>
<path fill="none" stroke="black" d="M441.63,-159.7C436.28,-151.56 429.8,-141.69 423.89,-132.7"/>
<polygon fill="black" stroke="black" points="426.66,-130.54 418.24,-124.1 420.81,-134.38 426.66,-130.54"/>
<g id="a_edge8&#45;headlabel"><a xlink:href="dir_000003_000000.html" target="_top" xlink:title="1">
<text text-anchor="middle" x="431" y="-129.48" font-family="Helvetica,sans-Serif" font-size="10.00">1</text>
</a>
</g>
</g>
<!-- dir_6e870ef65178f351a0558df8a56907f0&#45;&gt;dir_0599d141b1a2e9e9007ecef8e4a97773 -->
<g id="edge9" class="edge">
<title>dir_6e870ef65178f351a0558df8a56907f0&#45;&gt;dir_0599d141b1a2e9e9007ecef8e4a97773</title>
<path fill="none" stroke="black" d="M487.03,-52.04C474.61,-61.64 457.84,-73.7 442.81,-83.89"/>
<polygon fill="black" stroke="black" points="440.58,-81.17 434.21,-89.64 444.46,-86.99 440.58,-81.17"/>
<g id="a_edge9&#45;headlabel"><a xlink:href="dir_000005_000000.html" target="_top" xlink:title="4">
<text text-anchor="middle" x="441.99" y="-74.31" font-family="Helvetica,sans-Serif" font-size="10.00">4</text>
</a>
</g>
</g>
<!-- dir_4dbfcc87b9e83ca48e7e48cfedba2860&#45;&gt;dir_0599d141b1a2e9e9007ecef8e4a97773 -->
<g id="edge10" class="edge">
<title>dir_4dbfcc87b9e83ca48e7e48cfedba2860&#45;&gt;dir_0599d141b1a2e9e9007ecef8e4a97773</title>
<path fill="none" stroke="black" d="M498.4,-159.88C481.72,-150.23 460.75,-138.1 443.11,-127.89"/>
<polygon fill="black" stroke="black" points="444.63,-124.73 434.23,-122.75 441.13,-130.79 444.63,-124.73"/>
<g id="a_edge10&#45;headlabel"><a xlink:href="dir_000008_000000.html" target="_top" xlink:title="6">
<text text-anchor="middle" x="449.17" y="-121.57" font-family="Helvetica,sans-Serif" font-size="10.00">6</text>
</a>
</g>
</g>
<!-- dir_042917ff93cbe8fd08a35dc3a365551a&#45;&gt;dir_0599d141b1a2e9e9007ecef8e4a97773 -->
<g id="edge11" class="edge">
<title>dir_042917ff93cbe8fd08a35dc3a365551a&#45;&gt;dir_0599d141b1a2e9e9007ecef8e4a97773</title>
<path fill="none" stroke="black" d="M372.37,-159.7C377.72,-151.56 384.2,-141.69 390.11,-132.7"/>
<polygon fill="black" stroke="black" points="393.19,-134.38 395.76,-124.1 387.34,-130.54 393.19,-134.38"/>
<g id="a_edge11&#45;headlabel"><a xlink:href="dir_000010_000000.html" target="_top" xlink:title="3">
<text text-anchor="middle" x="393.59" y="-136.45" font-family="Helvetica,sans-Serif" font-size="10.00">3</text>
</a>
</g>
</g>
<!-- dir_c23e7cffbde126859bfb13ca741093c1 -->
<g id="node7" class="node">
<title>dir_c23e7cffbde126859bfb13ca741093c1</title>
<g id="a_node7"><a xlink:href="dir_c23e7cffbde126859bfb13ca741093c1.html" target="_top" xlink:title="Memory">
<polygon fill="#4ea9ff" stroke="#404040" points="315.5,-196 258.5,-196 258.5,-160 315.5,-160 315.5,-196"/>
<text text-anchor="middle" x="287" y="-175.5" font-family="Helvetica,sans-Serif" font-size="10.00">Memory</text>
</a>
</g>
</g>
<!-- dir_c23e7cffbde126859bfb13ca741093c1&#45;&gt;dir_0599d141b1a2e9e9007ecef8e4a97773 -->
<g id="edge12" class="edge">
<title>dir_c23e7cffbde126859bfb13ca741093c1&#45;&gt;dir_0599d141b1a2e9e9007ecef8e4a97773</title>
<path fill="none" stroke="black" d="M315.74,-160.23C332.28,-150.59 353.2,-138.38 370.84,-128.09"/>
<polygon fill="black" stroke="black" points="372.85,-130.97 379.73,-122.91 369.33,-124.92 372.85,-130.97"/>
<g id="a_edge12&#45;headlabel"><a xlink:href="dir_000013_000000.html" target="_top" xlink:title="1">
<text text-anchor="middle" x="371.18" y="-132.73" font-family="Helvetica,sans-Serif" font-size="10.00">1</text>
</a>
</g>
</g>
<!-- dir_6702df6110c674c7c8f842d9a55de16e -->
<g id="node8" class="node">
<title>dir_6702df6110c674c7c8f842d9a55de16e</title>
<g id="a_node8"><a xlink:href="dir_6702df6110c674c7c8f842d9a55de16e.html" target="_top" xlink:title="Observables">
<polygon fill="#4ea9ff" stroke="#404040" points="240.5,-196 163.5,-196 163.5,-160 240.5,-160 240.5,-196"/>
<text text-anchor="middle" x="202" y="-175.5" font-family="Helvetica,sans-Serif" font-size="10.00">Observables</text>
</a>
</g>
</g>
<!-- dir_6702df6110c674c7c8f842d9a55de16e&#45;&gt;dir_0599d141b1a2e9e9007ecef8e4a97773 -->
<g id="edge13" class="edge">
<title>dir_6702df6110c674c7c8f842d9a55de16e&#45;&gt;dir_0599d141b1a2e9e9007ecef8e4a97773</title>
<path fill="none" stroke="black" d="M240.76,-163.22C243.88,-162.12 246.99,-161.04 250,-160 290.97,-145.83 338.11,-129.98 369.95,-119.33"/>
<polygon fill="black" stroke="black" points="371.35,-122.56 379.73,-116.07 369.14,-115.92 371.35,-122.56"/>
<g id="a_edge13&#45;headlabel"><a xlink:href="dir_000015_000000.html" target="_top" xlink:title="15">
<text text-anchor="middle" x="368.84" y="-123.89" font-family="Helvetica,sans-Serif" font-size="10.00">15</text>
</a>
</g>
</g>
<!-- dir_609de7553fb39aeeac8189e5a49e0918 -->
<g id="node9" class="node">
<title>dir_609de7553fb39aeeac8189e5a49e0918</title>
<g id="a_node9"><a xlink:href="dir_609de7553fb39aeeac8189e5a49e0918.html" target="_top" xlink:title="Random">
<polygon fill="#4ea9ff" stroke="#404040" points="145.5,-196 88.5,-196 88.5,-160 145.5,-160 145.5,-196"/>
<text text-anchor="middle" x="117" y="-175.5" font-family="Helvetica,sans-Serif" font-size="10.00">Random</text>
</a>
</g>
</g>
<!-- dir_609de7553fb39aeeac8189e5a49e0918&#45;&gt;dir_0599d141b1a2e9e9007ecef8e4a97773 -->
<g id="edge14" class="edge">
<title>dir_609de7553fb39aeeac8189e5a49e0918&#45;&gt;dir_0599d141b1a2e9e9007ecef8e4a97773</title>
<path fill="none" stroke="black" d="M145.8,-163.35C148.87,-162.13 151.98,-160.98 155,-160 229.43,-135.83 319.9,-119.93 369.67,-112.3"/>
<polygon fill="black" stroke="black" points="370.29,-115.74 379.65,-110.79 369.24,-108.82 370.29,-115.74"/>
<g id="a_edge14&#45;headlabel"><a xlink:href="dir_000017_000000.html" target="_top" xlink:title="1">
<text text-anchor="middle" x="367.15" y="-116.59" font-family="Helvetica,sans-Serif" font-size="10.00">1</text>
</a>
</g>
</g>
<!-- dir_b18e5ce22cacb1d7c6a32e9c42171a59 -->
<g id="node10" class="node">
<title>dir_b18e5ce22cacb1d7c6a32e9c42171a59</title>
<g id="a_node10"><a xlink:href="dir_b18e5ce22cacb1d7c6a32e9c42171a59.html" target="_top" xlink:title="Statistics">
<polygon fill="#4ea9ff" stroke="#404040" points="280,-268 218,-268 218,-232 280,-232 280,-268"/>
<text text-anchor="middle" x="249" y="-247.5" font-family="Helvetica,sans-Serif" font-size="10.00">Statistics</text>
</a>
</g>
</g>
<!-- dir_77f36d1a0ec36352a6c0a8f5f4e833a3 -->
<g id="node11" class="node">
<title>dir_77f36d1a0ec36352a6c0a8f5f4e833a3</title>
<g id="a_node11"><a xlink:href="dir_77f36d1a0ec36352a6c0a8f5f4e833a3.html" target="_top" xlink:title="Update">
<polygon fill="#4ea9ff" stroke="#404040" points="70,-196 16,-196 16,-160 70,-160 70,-196"/>
<text text-anchor="middle" x="43" y="-175.5" font-family="Helvetica,sans-Serif" font-size="10.00">Update</text>
</a>
</g>
</g>
<!-- dir_77f36d1a0ec36352a6c0a8f5f4e833a3&#45;&gt;dir_0599d141b1a2e9e9007ecef8e4a97773 -->
<g id="edge15" class="edge">
<title>dir_77f36d1a0ec36352a6c0a8f5f4e833a3&#45;&gt;dir_0599d141b1a2e9e9007ecef8e4a97773</title>
<path fill="none" stroke="black" d="M70.2,-163.19C73.13,-161.99 76.1,-160.9 79,-160 181.34,-128.26 307.86,-114.68 369.58,-109.61"/>
<polygon fill="black" stroke="black" points="369.93,-113.1 379.63,-108.82 369.38,-106.12 369.93,-113.1"/>
<g id="a_edge15&#45;headlabel"><a xlink:href="dir_000022_000000.html" target="_top" xlink:title="9">
<text text-anchor="middle" x="366.57" y="-113.71" font-family="Helvetica,sans-Serif" font-size="10.00">9</text>
</a>
</g>
</g>
<!-- dir_91ce8992212d64b1bc85f2ed078c9c66&#45;&gt;dir_0599d141b1a2e9e9007ecef8e4a97773 -->
<g id="edge16" class="edge">
<title>dir_91ce8992212d64b1bc85f2ed078c9c66&#45;&gt;dir_0599d141b1a2e9e9007ecef8e4a97773</title>
<path fill="none" stroke="black" d="M575.63,-163.66C572.74,-162.37 569.82,-161.13 567,-160 525.51,-143.4 476.59,-127.75 443.86,-117.82"/>
<polygon fill="black" stroke="black" points="444.84,-114.46 434.25,-114.92 442.82,-121.16 444.84,-114.46"/>
<g id="a_edge16&#45;headlabel"><a xlink:href="dir_000025_000000.html" target="_top" xlink:title="11">
<text text-anchor="middle" x="449.1" y="-110.27" font-family="Helvetica,sans-Serif" font-size="10.00">11</text>
</a>
</g>
</g>
<!-- dir_91ce8992212d64b1bc85f2ed078c9c66&#45;&gt;dir_6e870ef65178f351a0558df8a56907f0 -->
<g id="edge17" class="edge">
<title>dir_91ce8992212d64b1bc85f2ed078c9c66&#45;&gt;dir_6e870ef65178f351a0558df8a56907f0</title>
<path fill="none" stroke="black" d="M591.18,-159.87C574.11,-135.14 542.43,-89.24 522.61,-60.51"/>
<polygon fill="black" stroke="black" points="525.42,-58.43 516.86,-52.19 519.66,-62.41 525.42,-58.43"/>
<g id="a_edge17&#45;headlabel"><a xlink:href="dir_000025_000005.html" target="_top" xlink:title="2">
<text text-anchor="middle" x="529.8" y="-57.28" font-family="Helvetica,sans-Serif" font-size="10.00">2</text>
</a>
</g>
</g>
</g>
</svg>
        <g id="navigator" transform="translate(0 0)" fill="#404254">
                <rect fill="#f2f5e9" fill-opacity="0.5" stroke="#606060" stroke-width=".5" x="0" y="0" width="60" height="60"/>
                <use id="zoomplus" xlink:href="#zoomPlus" x="17" y="9" onmousedown="handleZoom(evt,'in')"/>
                <use id="zoomminus" xlink:href="#zoomMin" x="42" y="9" onmousedown="handleZoom(evt,'out')"/>
                <use id="reset" xlink:href="#resetDef" x="30" y="36" onmousedown="handleReset()"/>
                <g id="arrowUp" xlink:href="#dirArrow" transform="translate(30 24)" onmousedown="handlePan(0,-1)">
                  <use xlink:href="#rim" fill="#404040">
                        <set attributeName="fill" to="#808080" begin="arrowUp.mouseover" end="arrowUp.mouseout"/>
                  </use>
                  <path fill="none" stroke="white" stroke-width="1.5" d="M0,-3.0v7 M-2.5,-0.5L0,-3.0L2.5,-0.5"/>
                </g>
                <g id="arrowRight" xlink:href="#dirArrow" transform="rotate(90) translate(36 -43)" onmousedown="handlePan(1,0)">
                  <use xlink:href="#rim" fill="#404040">
                        <set attributeName="fill" to="#808080" begin="arrowRight.mouseover" end="arrowRight.mouseout"/>
                  </use>
                  <path fill="none" stroke="white" stroke-width="1.5" d="M0,-3.0v7 M-2.5,-0.5L0,-3.0L2.5,-0.5"/>
                </g>
                <g id="arrowDown" xlink:href="#dirArrow" transform="rotate(180) translate(-30 -48)" onmousedown="handlePan(0,1)">
                  <use xlink:href="#rim" fill="#404040">
                        <set attributeName="fill" to="#808080" begin="arrowDown.mouseover" end="arrowDown.mouseout"/>
                  </use>
                  <path fill="none" stroke="white" stroke-width="1.5" d="M0,-3.0v7 M-2.5,-0.5L0,-3.0L2.5,-0.5"/>
                </g>
                <g id="arrowLeft" xlink:href="#dirArrow" transform="rotate(270) translate(-36 17)" onmousedown="handlePan(-1,0)">
                  <use xlink:href="#rim" fill="#404040">
                        <set attributeName="fill" to="#808080" begin="arrowLeft.mouseover" end="arrowLeft.mouseout"/>
                  </use>
                  <path fill="none" stroke="white" stroke-width="1.5" d="M0,-3.0v7 M-2.5,-0.5L0,-3.0L2.5,-0.5"/>
                </g>
        </g>
        <svg viewBox="0 0 15 15" width="100%" height="30px" preserveAspectRatio="xMaxYMin meet">
         <g id="arrow_out" transform="scale(0.3 0.3)">
          <a xlink:href="dir_856524284ebe840938865dc061f982fb_dep_org.svg" target="_base">
           <rect id="button" ry="5" rx="5" y="6" x="6" height="38" width="38"
                fill="#f2f5e9" fill-opacity="0.5" stroke="#606060" stroke-width="1.0"/>
           <path id="arrow"
             d="M 11.500037,31.436501 C 11.940474,20.09759 22.043105,11.32322 32.158766,21.979434 L 37.068811,17.246167 C 37.068811,17.246167 37.088388,32 37.088388,32 L 22.160133,31.978069 C 22.160133,31.978069 26.997745,27.140456 26.997745,27.140456 C 18.528582,18.264221 13.291696,25.230495 11.500037,31.436501 z"
             style="fill:#404040;"/>
          </a>
         </g>
        </svg>
</svg>
