<?xml version="1.0" encoding="UTF-8" standalone="no"?>
<!DOCTYPE svg PUBLIC "-//W3C//DTD SVG 1.1//EN"
 "http://www.w3.org/Graphics/SVG/1.1/DTD/svg11.dtd">
<!-- Generated by graphviz version 2.43.0 (0)
 -->
<!-- Title: LibHR Pages: 1 -->
<svg width="942pt" height="132pt"
 viewBox="0.00 0.00 942.00 132.00" xmlns="http://www.w3.org/2000/svg" xmlns:xlink="http://www.w3.org/1999/xlink">
<g id="graph0" class="graph" transform="scale(1 1) rotate(0) translate(4 128)">
<title>LibHR</title>
<g id="clust1" class="cluster">
<title>clusterdir_8d9c9bab54275f7223e972448cc224a9</title>
<g id="a_clust1"><a xlink:href="dir_8d9c9bab54275f7223e972448cc224a9.html" target="_top">
<polygon fill="#daedff" stroke="#404040" stroke-width="2" points="8,-64 8,-116 926,-116 926,-64 8,-64"/>
</a>
</g>
</g>
<!-- dir_8d9c9bab54275f7223e972448cc224a9 -->
<g id="node1" class="node">
<title>dir_8d9c9bab54275f7223e972448cc224a9</title>
<text text-anchor="middle" x="891" y="-87.5" font-family="Helvetica,sans-Serif" font-size="10.00">LibHR</text>
</g>
<!-- dir_3214dc2b11a4e2d09a77d2cb08a0ad09 -->
<g id="node2" class="node">
<title>dir_3214dc2b11a4e2d09a77d2cb08a0ad09</title>
<g id="a_node2"><a xlink:href="dir_3214dc2b11a4e2d09a77d2cb08a0ad09.html" target="_top" xlink:title="Core">
<polygon fill="#4ea9ff" stroke="#404040" points="846,-108 792,-108 792,-72 846,-72 846,-108"/>
<text text-anchor="middle" x="819" y="-87.5" font-family="Helvetica,sans-Serif" font-size="10.00">Core</text>
</a>
</g>
</g>
<!-- dir_856524284ebe840938865dc061f982fb -->
<g id="node13" class="node">
<title>dir_856524284ebe840938865dc061f982fb</title>
<g id="a_node13"><a xlink:href="dir_856524284ebe840938865dc061f982fb.html" target="_top" xlink:title="Include">
<polygon fill="none" stroke="red" points="618,-36 564,-36 564,0 618,0 618,-36"/>
<text text-anchor="middle" x="591" y="-15.5" font-family="Helvetica,sans-Serif" font-size="10.00">Include</text>
</a>
</g>
</g>
<!-- dir_3214dc2b11a4e2d09a77d2cb08a0ad09&#45;&gt;dir_856524284ebe840938865dc061f982fb -->
<g id="edge1" class="edge">
<title>dir_3214dc2b11a4e2d09a77d2cb08a0ad09&#45;&gt;dir_856524284ebe840938865dc061f982fb</title>
<path fill="none" stroke="black" d="M796.92,-71.76C792.48,-68.85 787.73,-66.1 783,-64 731.89,-41.26 667.8,-29.22 628.13,-23.48"/>
<polygon fill="black" stroke="black" points="628.49,-19.99 618.1,-22.09 627.53,-26.93 628.49,-19.99"/>
<g id="a_edge1&#45;headlabel"><a xlink:href="dir_000001_000007.html" target="_top" xlink:title="1">
<text text-anchor="middle" x="632.44" y="-15.18" font-family="Helvetica,sans-Serif" font-size="10.00">1</text>
</a>
</g>
</g>
<!-- dir_86eb9c97d9edd5f38c329af111456f9c -->
<g id="node3" class="node">
<title>dir_86eb9c97d9edd5f38c329af111456f9c</title>
<g id="a_node3"><a xlink:href="dir_86eb9c97d9edd5f38c329af111456f9c.html" target="_top" xlink:title="Error">
<polygon fill="#4ea9ff" stroke="#404040" points="774,-108 720,-108 720,-72 774,-72 774,-108"/>
<text text-anchor="middle" x="747" y="-87.5" font-family="Helvetica,sans-Serif" font-size="10.00">Error</text>
</a>
</g>
</g>
<!-- dir_86eb9c97d9edd5f38c329af111456f9c&#45;&gt;dir_856524284ebe840938865dc061f982fb -->
<g id="edge2" class="edge">
<title>dir_86eb9c97d9edd5f38c329af111456f9c&#45;&gt;dir_856524284ebe840938865dc061f982fb</title>
<path fill="none" stroke="black" d="M724.29,-71.98C720,-69.12 715.45,-66.33 711,-64 684.15,-49.93 651.9,-38.09 627.59,-30.09"/>
<polygon fill="black" stroke="black" points="628.63,-26.75 618.03,-27.01 626.48,-33.41 628.63,-26.75"/>
<g id="a_edge2&#45;headlabel"><a xlink:href="dir_000004_000007.html" target="_top" xlink:title="2">
<text text-anchor="middle" x="632.92" y="-22.65" font-family="Helvetica,sans-Serif" font-size="10.00">2</text>
</a>
</g>
</g>
<!-- dir_59539e0497069495010ff976c201df9d -->
<g id="node4" class="node">
<title>dir_59539e0497069495010ff976c201df9d</title>
<g id="a_node4"><a xlink:href="dir_59539e0497069495010ff976c201df9d.html" target="_top" xlink:title="Geometry">
<polygon fill="#4ea9ff" stroke="#404040" points="701.5,-108 636.5,-108 636.5,-72 701.5,-72 701.5,-108"/>
<text text-anchor="middle" x="669" y="-87.5" font-family="Helvetica,sans-Serif" font-size="10.00">Geometry</text>
</a>
</g>
</g>
<!-- dir_59539e0497069495010ff976c201df9d&#45;&gt;dir_856524284ebe840938865dc061f982fb -->
<g id="edge3" class="edge">
<title>dir_59539e0497069495010ff976c201df9d&#45;&gt;dir_856524284ebe840938865dc061f982fb</title>
<path fill="none" stroke="black" d="M649.72,-71.7C640.08,-63.05 628.27,-52.45 617.77,-43.03"/>
<polygon fill="black" stroke="black" points="619.84,-40.18 610.06,-36.1 615.16,-45.39 619.84,-40.18"/>
<g id="a_edge3&#45;headlabel"><a xlink:href="dir_000006_000007.html" target="_top" xlink:title="14">
<text text-anchor="middle" x="624.41" y="-37.97" font-family="Helvetica,sans-Serif" font-size="10.00">14</text>
</a>
</g>
</g>
<!-- dir_415a916a1fbcf6d03bef6bcc2348d6df -->
<g id="node5" class="node">
<title>dir_415a916a1fbcf6d03bef6bcc2348d6df</title>
<g id="a_node5"><a xlink:href="dir_415a916a1fbcf6d03bef6bcc2348d6df.html" target="_top" xlink:title="Inverters">
<polygon fill="#4ea9ff" stroke="#404040" points="618,-108 558,-108 558,-72 618,-72 618,-108"/>
<text text-anchor="middle" x="588" y="-87.5" font-family="Helvetica,sans-Serif" font-size="10.00">Inverters</text>
</a>
</g>
</g>
<!-- dir_e2652a780683b9c1a9181fd071c0a056 -->
<g id="node6" class="node">
<title>dir_e2652a780683b9c1a9181fd071c0a056</title>
<g id="a_node6"><a xlink:href="dir_e2652a780683b9c1a9181fd071c0a056.html" target="_top" xlink:title="IO">
<polygon fill="#4ea9ff" stroke="#404040" points="540,-108 486,-108 486,-72 540,-72 540,-108"/>
<text text-anchor="middle" x="513" y="-87.5" font-family="Helvetica,sans-Serif" font-size="10.00">IO</text>
</a>
</g>
</g>
<!-- dir_e2652a780683b9c1a9181fd071c0a056&#45;&gt;dir_856524284ebe840938865dc061f982fb -->
<g id="edge4" class="edge">
<title>dir_e2652a780683b9c1a9181fd071c0a056&#45;&gt;dir_856524284ebe840938865dc061f982fb</title>
<path fill="none" stroke="black" d="M532.28,-71.7C541.92,-63.05 553.73,-52.45 564.23,-43.03"/>
<polygon fill="black" stroke="black" points="566.84,-45.39 571.94,-36.1 562.16,-40.18 566.84,-45.39"/>
<g id="a_edge4&#45;headlabel"><a xlink:href="dir_000011_000007.html" target="_top" xlink:title="5">
<text text-anchor="middle" x="566.06" y="-47.4" font-family="Helvetica,sans-Serif" font-size="10.00">5</text>
</a>
</g>
</g>
<!-- dir_b79351b7507fa81f847f20f5273ecc03 -->
<g id="node7" class="node">
<title>dir_b79351b7507fa81f847f20f5273ecc03</title>
<g id="a_node7"><a xlink:href="dir_b79351b7507fa81f847f20f5273ecc03.html" target="_top" xlink:title="Memory">
<polygon fill="#4ea9ff" stroke="#404040" points="467.5,-108 410.5,-108 410.5,-72 467.5,-72 467.5,-108"/>
<text text-anchor="middle" x="439" y="-87.5" font-family="Helvetica,sans-Serif" font-size="10.00">Memory</text>
</a>
</g>
</g>
<!-- dir_b79351b7507fa81f847f20f5273ecc03&#45;&gt;dir_856524284ebe840938865dc061f982fb -->
<g id="edge5" class="edge">
<title>dir_b79351b7507fa81f847f20f5273ecc03&#45;&gt;dir_856524284ebe840938865dc061f982fb</title>
<path fill="none" stroke="black" d="M463.49,-71.84C467.9,-69.06 472.51,-66.33 477,-64 501.84,-51.1 531.25,-39.58 553.98,-31.42"/>
<polygon fill="black" stroke="black" points="555.32,-34.66 563.59,-28.03 552.99,-28.06 555.32,-34.66"/>
<g id="a_edge5&#45;headlabel"><a xlink:href="dir_000014_000007.html" target="_top" xlink:title="1">
<text text-anchor="middle" x="552.88" y="-36.03" font-family="Helvetica,sans-Serif" font-size="10.00">1</text>
</a>
</g>
</g>
<!-- dir_5f0c683742883e8f105d7ebe24465985 -->
<g id="node8" class="node">
<title>dir_5f0c683742883e8f105d7ebe24465985</title>
<g id="a_node8"><a xlink:href="dir_5f0c683742883e8f105d7ebe24465985.html" target="_top" xlink:title="Observables">
<polygon fill="#4ea9ff" stroke="#404040" points="392.5,-108 315.5,-108 315.5,-72 392.5,-72 392.5,-108"/>
<text text-anchor="middle" x="354" y="-87.5" font-family="Helvetica,sans-Serif" font-size="10.00">Observables</text>
</a>
</g>
</g>
<!-- dir_2862191ed9fbe4f62eda5b6eb4f9feb6 -->
<g id="node9" class="node">
<title>dir_2862191ed9fbe4f62eda5b6eb4f9feb6</title>
<g id="a_node9"><a xlink:href="dir_2862191ed9fbe4f62eda5b6eb4f9feb6.html" target="_top" xlink:title="Random">
<polygon fill="#4ea9ff" stroke="#404040" points="297.5,-108 240.5,-108 240.5,-72 297.5,-72 297.5,-108"/>
<text text-anchor="middle" x="269" y="-87.5" font-family="Helvetica,sans-Serif" font-size="10.00">Random</text>
</a>
</g>
</g>
<!-- dir_0e75fa9af7fad45578a40c0e11432a1b -->
<g id="node10" class="node">
<title>dir_0e75fa9af7fad45578a40c0e11432a1b</title>
<g id="a_node10"><a xlink:href="dir_0e75fa9af7fad45578a40c0e11432a1b.html" target="_top" xlink:title="Statistics">
<polygon fill="#4ea9ff" stroke="#404040" points="222,-108 160,-108 160,-72 222,-72 222,-108"/>
<text text-anchor="middle" x="191" y="-87.5" font-family="Helvetica,sans-Serif" font-size="10.00">Statistics</text>
</a>
</g>
</g>
<!-- dir_96cea3264d8327c0d8fc46bc059f8987 -->
<g id="node11" class="node">
<title>dir_96cea3264d8327c0d8fc46bc059f8987</title>
<g id="a_node11"><a xlink:href="dir_96cea3264d8327c0d8fc46bc059f8987.html" target="_top" xlink:title="Update">
<polygon fill="#4ea9ff" stroke="#404040" points="142,-108 88,-108 88,-72 142,-72 142,-108"/>
<text text-anchor="middle" x="115" y="-87.5" font-family="Helvetica,sans-Serif" font-size="10.00">Update</text>
</a>
</g>
</g>
<!-- dir_96cea3264d8327c0d8fc46bc059f8987&#45;&gt;dir_856524284ebe840938865dc061f982fb -->
<g id="edge6" class="edge">
<title>dir_96cea3264d8327c0d8fc46bc059f8987&#45;&gt;dir_856524284ebe840938865dc061f982fb</title>
<path fill="none" stroke="black" d="M136.1,-71.77C140.77,-68.71 145.86,-65.9 151,-64 224.68,-36.73 461.67,-24.31 553.84,-20.42"/>
<polygon fill="black" stroke="black" points="553.99,-23.91 563.83,-20 553.7,-16.92 553.99,-23.91"/>
<g id="a_edge6&#45;headlabel"><a xlink:href="dir_000023_000007.html" target="_top" xlink:title="4">
<text text-anchor="middle" x="550.51" y="-24.4" font-family="Helvetica,sans-Serif" font-size="10.00">4</text>
</a>
</g>
</g>
<!-- dir_8a23b96c21da8880285d5fe8247fa8fe -->
<g id="node12" class="node">
<title>dir_8a23b96c21da8880285d5fe8247fa8fe</title>
<g id="a_node12"><a xlink:href="dir_8a23b96c21da8880285d5fe8247fa8fe.html" target="_top" xlink:title="Utils">
<polygon fill="#4ea9ff" stroke="#404040" points="70,-108 16,-108 16,-72 70,-72 70,-108"/>
<text text-anchor="middle" x="43" y="-87.5" font-family="Helvetica,sans-Serif" font-size="10.00">Utils</text>
</a>
</g>
</g>
</g>
</svg>
