<?xml version="1.0" encoding="UTF-8" standalone="no"?>
<!DOCTYPE svg PUBLIC "-//W3C//DTD SVG 1.1//EN"
 "http://www.w3.org/Graphics/SVG/1.1/DTD/svg11.dtd">
<!-- Generated by graphviz version 2.43.0 (0)
 -->
<!-- Title: field_alloc.c Pages: 1 -->
<svg width="166pt" height="84pt"
 viewBox="0.00 0.00 165.50 84.00" xmlns="http://www.w3.org/2000/svg" xmlns:xlink="http://www.w3.org/1999/xlink">
<g id="graph0" class="graph" transform="scale(1 1) rotate(0) translate(4 80)">
<title>field_alloc.c</title>
<!-- Node1 -->
<g id="node1" class="node">
<title>Node1</title>
<g id="a_node1"><a xlink:title="Allocation and free functions for all fields defined in spinor_field.h.">
<polygon fill="#bfbfbf" stroke="black" points="39.5,-56.5 39.5,-75.5 113.5,-75.5 113.5,-56.5 39.5,-56.5"/>
<text text-anchor="middle" x="76.5" y="-63.5" font-family="Helvetica,sans-Serif" font-size="10.00">field_alloc.c</text>
</a>
</g>
</g>
<!-- Node2 -->
<g id="node2" class="node">
<title>Node2</title>
<g id="a_node2"><a xlink:href="../../dc/d18/memory_8h_source.html" target="_top" xlink:title=" ">
<polygon fill="none" stroke="red" points="0,-0.5 0,-19.5 65,-19.5 65,-0.5 0,-0.5"/>
<text text-anchor="middle" x="32.5" y="-7.5" font-family="Helvetica,sans-Serif" font-size="10.00">memory.h</text>
</a>
</g>
</g>
<!-- Node1&#45;&gt;Node2 -->
<g id="edge1" class="edge">
<title>Node1&#45;&gt;Node2</title>
<path fill="none" stroke="midnightblue" d="M69.23,-56.08C62.96,-48.38 53.71,-37.03 46.07,-27.65"/>
<polygon fill="midnightblue" stroke="midnightblue" points="48.66,-25.29 39.63,-19.75 43.23,-29.71 48.66,-25.29"/>
</g>
<!-- Node10 -->
<g id="node3" class="node">
<title>Node10</title>
<g id="a_node3"><a xlink:href="../../d8/d1f/libhr__core_8h_source.html" target="_top" xlink:title=" ">
<polygon fill="none" stroke="red" points="83.5,-0.5 83.5,-19.5 157.5,-19.5 157.5,-0.5 83.5,-0.5"/>
<text text-anchor="middle" x="120.5" y="-7.5" font-family="Helvetica,sans-Serif" font-size="10.00">libhr_core.h</text>
</a>
</g>
</g>
<!-- Node1&#45;&gt;Node10 -->
<g id="edge2" class="edge">
<title>Node1&#45;&gt;Node10</title>
<path fill="none" stroke="midnightblue" d="M83.77,-56.08C90.04,-48.38 99.29,-37.03 106.93,-27.65"/>
<polygon fill="midnightblue" stroke="midnightblue" points="109.77,-29.71 113.37,-19.75 104.34,-25.29 109.77,-29.71"/>
</g>
</g>
</svg>
