<?xml version="1.0" encoding="UTF-8" standalone="no"?>
<!DOCTYPE svg PUBLIC "-//W3C//DTD SVG 1.1//EN"
 "http://www.w3.org/Graphics/SVG/1.1/DTD/svg11.dtd">
<!-- Generated by graphviz version 2.43.0 (0)
 -->
<!-- Title: mon_rhmc_par Pages: 1 -->
<svg width="206pt" height="162pt"
 viewBox="0.00 0.00 206.00 162.00" xmlns="http://www.w3.org/2000/svg" xmlns:xlink="http://www.w3.org/1999/xlink">
<g id="graph0" class="graph" transform="scale(1 1) rotate(0) translate(4 158)">
<title>mon_rhmc_par</title>
<!-- Node1 -->
<g id="node1" class="node">
<title>Node1</title>
<g id="a_node1"><a xlink:title=" ">
<polygon fill="#bfbfbf" stroke="black" points="62,-0.5 62,-19.5 151,-19.5 151,-0.5 62,-0.5"/>
<text text-anchor="middle" x="106.5" y="-7.5" font-family="Helvetica,sans-Serif" font-size="10.00">mon_rhmc_par</text>
</a>
</g>
</g>
<!-- Node2 -->
<g id="node2" class="node">
<title>Node2</title>
<g id="a_node2"><a xlink:href="../../d1/d9f/struct__rational__app.html" target="_top" xlink:title=" ">
<polygon fill="none" stroke="#bfbfbf" points="0,-134.5 0,-153.5 83,-153.5 83,-134.5 0,-134.5"/>
<text text-anchor="middle" x="41.5" y="-141.5" font-family="Helvetica,sans-Serif" font-size="10.00">_rational_app</text>
</a>
</g>
</g>
<!-- Node2&#45;&gt;Node1 -->
<g id="edge1" class="edge">
<title>Node2&#45;&gt;Node1</title>
<path fill="none" stroke="#9a32cd" stroke-dasharray="5,2" d="M31.1,-124.73C23.46,-108.72 15.95,-85.22 25.5,-67 37.65,-43.83 64.21,-28.36 83.61,-19.65"/>
<polygon fill="#9a32cd" stroke="#9a32cd" points="28.23,-126.79 35.95,-134.04 34.43,-123.56 28.23,-126.79"/>
<text text-anchor="middle" x="38.5" y="-74.5" font-family="Helvetica,sans-Serif" font-size="10.00"> ratio</text>
</g>
<!-- Node3 -->
<g id="node3" class="node">
<title>Node3</title>
<g id="a_node3"><a xlink:href="../../d1/d17/structforce__rhmc__par.html" target="_top" xlink:title=" ">
<polygon fill="none" stroke="orangered" points="60.5,-67.5 60.5,-86.5 152.5,-86.5 152.5,-67.5 60.5,-67.5"/>
<text text-anchor="middle" x="106.5" y="-74.5" font-family="Helvetica,sans-Serif" font-size="10.00">force_rhmc_par</text>
</a>
</g>
</g>
<!-- Node2&#45;&gt;Node3 -->
<g id="edge4" class="edge">
<title>Node2&#45;&gt;Node3</title>
<path fill="none" stroke="#9a32cd" stroke-dasharray="5,2" d="M57.5,-127C70.25,-114.25 87.61,-96.89 97.87,-86.63"/>
<polygon fill="#9a32cd" stroke="#9a32cd" points="54.86,-124.69 50.27,-134.23 59.81,-129.64 54.86,-124.69"/>
<text text-anchor="middle" x="91.5" y="-108" font-family="Helvetica,sans-Serif" font-size="10.00"> ratio</text>
</g>
<!-- Node3&#45;&gt;Node1 -->
<g id="edge2" class="edge">
<title>Node3&#45;&gt;Node1</title>
<path fill="none" stroke="#9a32cd" stroke-dasharray="5,2" d="M106.5,-57.04C106.5,-44.67 106.5,-29.12 106.5,-19.63"/>
<polygon fill="#9a32cd" stroke="#9a32cd" points="103,-57.23 106.5,-67.23 110,-57.23 103,-57.23"/>
<text text-anchor="middle" x="118" y="-41" font-family="Helvetica,sans-Serif" font-size="10.00"> fpar</text>
</g>
<!-- Node4 -->
<g id="node4" class="node">
<title>Node4</title>
<g id="a_node4"><a xlink:href="../../d0/da8/structspinor__field.html" target="_top" xlink:title="Spinor field array containing SU(N_f) spinors in chosen fermion representation.">
<polygon fill="none" stroke="red" points="125,-134.5 125,-153.5 198,-153.5 198,-134.5 125,-134.5"/>
<text text-anchor="middle" x="161.5" y="-141.5" font-family="Helvetica,sans-Serif" font-size="10.00">spinor_field</text>
</a>
</g>
</g>
<!-- Node4&#45;&gt;Node1 -->
<g id="edge5" class="edge">
<title>Node4&#45;&gt;Node1</title>
<path fill="none" stroke="#9a32cd" stroke-dasharray="5,2" d="M165.33,-124.03C167.64,-108.19 168.9,-85.31 161.5,-67 153.23,-46.53 133.4,-29.54 119.96,-19.83"/>
<polygon fill="#9a32cd" stroke="#9a32cd" points="161.83,-123.71 163.56,-134.16 168.73,-124.91 161.83,-123.71"/>
<text text-anchor="middle" x="172" y="-74.5" font-family="Helvetica,sans-Serif" font-size="10.00"> pf</text>
</g>
<!-- Node4&#45;&gt;Node3 -->
<g id="edge3" class="edge">
<title>Node4&#45;&gt;Node3</title>
<path fill="none" stroke="#9a32cd" stroke-dasharray="5,2" d="M147.34,-126.27C136.62,-113.6 122.32,-96.7 113.8,-86.63"/>
<polygon fill="#9a32cd" stroke="#9a32cd" points="144.95,-128.86 154.08,-134.23 150.29,-124.34 144.95,-128.86"/>
<text text-anchor="middle" x="143" y="-108" font-family="Helvetica,sans-Serif" font-size="10.00"> pf</text>
</g>
</g>
</svg>
