<?xml version="1.0" encoding="UTF-8" standalone="no"?>
<!DOCTYPE svg PUBLIC "-//W3C//DTD SVG 1.1//EN"
 "http://www.w3.org/Graphics/SVG/1.1/DTD/svg11.dtd">
<!-- Generated by graphviz version 2.43.0 (0)
 -->
<!-- Title: geometry.h Pages: 1 -->
<!--zoomable 151 -->
<svg id="main" version="1.1" xmlns="http://www.w3.org/2000/svg" xmlns:xlink="http://www.w3.org/1999/xlink" xml:space="preserve" onload="init(evt)">
<style type="text/css"><![CDATA[
.edge:hover path { stroke: red; }
.edge:hover polygon { stroke: red; fill: red; }
]]></style>
<script type="text/javascript"><![CDATA[
var edges = document.getElementsByTagName('g');
if (edges && edges.length) {
  for (var i=0;i<edges.length;i++) {
    if (edges[i].id.substr(0,4)=='edge') {
      edges[i].setAttribute('class','edge');
    }
  }
}
]]></script>
        <defs>
                <circle id="rim" cx="0" cy="0" r="7"/>
                <circle id="rim2" cx="0" cy="0" r="3.5"/>
                <g id="zoomPlus">
                        <use xlink:href="#rim" fill="#404040">
                                <set attributeName="fill" to="#808080" begin="zoomplus.mouseover" end="zoomplus.mouseout"/>
                        </use>
                        <path d="M-4,0h8M0,-4v8" fill="none" stroke="white" stroke-width="1.5" pointer-events="none"/>
                </g>
                <g id="zoomMin">
                        <use xlink:href="#rim" fill="#404040">
                                <set attributeName="fill" to="#808080" begin="zoomminus.mouseover" end="zoomminus.mouseout"/>
                        </use>
                        <path d="M-4,0h8" fill="none" stroke="white" stroke-width="1.5" pointer-events="none"/>
                </g>
                <g id="dirArrow">
                        <path fill="none" stroke="white" stroke-width="1.5" d="M0,-3.0v7 M-2.5,-0.5L0,-3.0L2.5,-0.5"/>
                </g>
               <g id="resetDef">
                       <use xlink:href="#rim2" fill="#404040">
                               <set attributeName="fill" to="#808080" begin="reset.mouseover" end="reset.mouseout"/>
                       </use>
               </g>
        </defs>

<script type="text/javascript">
var viewWidth = 1923;
var viewHeight = 151;
var sectionId = 'dynsection-0';
</script>
<script xlink:href="../../svgpan.js"/>
<svg id="graph" class="graph">
<g id="viewport">
<title>geometry.h</title>
<!-- Node1 -->
<g id="node1" class="node">
<title>Node1</title>
<g id="a_node1"><a xlink:title="This file contains information on the geometry of the local lattice, block decomposed geometry,...">
<polygon fill="#bfbfbf" stroke="black" points="971.5,-123.5 971.5,-142.5 1042.5,-142.5 1042.5,-123.5 971.5,-123.5"/>
<text text-anchor="middle" x="1007" y="-130.5" font-family="Helvetica,sans-Serif" font-size="10.00">geometry.h</text>
</a>
</g>
</g>
<!-- Node2 -->
<g id="node2" class="node">
<title>Node2</title>
<g id="a_node2"><a xlink:href="../../d2/d6f/communications_8h.html" target="_top" xlink:title="Communications to send and receive sites from other nodes using MPI.">
<polygon fill="none" stroke="red" points="0,-62 0,-81 158,-81 158,-62 0,-62"/>
<text text-anchor="middle" x="79" y="-69" font-family="Helvetica,sans-Serif" font-size="10.00">Geometry/communications.h</text>
</a>
</g>
</g>
<!-- Node1&#45;&gt;Node2 -->
<g id="edge1" class="edge">
<title>Node1&#45;&gt;Node2</title>
<path fill="none" stroke="midnightblue" d="M971.23,-131.51C854.86,-129.63 476.67,-121.09 166,-87 155.73,-85.87 144.84,-84.33 134.36,-82.68"/>
<polygon fill="midnightblue" stroke="midnightblue" points="134.9,-79.22 124.47,-81.06 133.78,-86.13 134.9,-79.22"/>
</g>
<!-- Node8 -->
<g id="node3" class="node">
<title>Node8</title>
<g id="a_node3"><a xlink:href="../../d4/d81/communications__gpu_8h.html" target="_top" xlink:title="Communications to send and receive sites from other nodes using MPI with GPU.">
<polygon fill="none" stroke="red" points="175.5,-56.5 175.5,-86.5 324.5,-86.5 324.5,-56.5 175.5,-56.5"/>
<text text-anchor="start" x="183.5" y="-74.5" font-family="Helvetica,sans-Serif" font-size="10.00">Geometry/communications</text>
<text text-anchor="middle" x="250" y="-63.5" font-family="Helvetica,sans-Serif" font-size="10.00">_gpu.h</text>
</a>
</g>
</g>
<!-- Node1&#45;&gt;Node8 -->
<g id="edge2" class="edge">
<title>Node1&#45;&gt;Node8</title>
<path fill="none" stroke="midnightblue" d="M971.49,-130.93C872.42,-127.66 584.45,-116.29 334.59,-86.98"/>
<polygon fill="midnightblue" stroke="midnightblue" points="334.94,-83.49 324.6,-85.79 334.11,-90.44 334.94,-83.49"/>
</g>
<!-- Node9 -->
<g id="node4" class="node">
<title>Node9</title>
<g id="a_node4"><a xlink:href="../../de/d59/cpu__geometry_8h.html" target="_top" xlink:title="This file contains macros to load elements of single sites of a field.">
<polygon fill="none" stroke="red" points="343,-62 343,-81 489,-81 489,-62 343,-62"/>
<text text-anchor="middle" x="416" y="-69" font-family="Helvetica,sans-Serif" font-size="10.00">Geometry/cpu_geometry.h</text>
</a>
</g>
</g>
<!-- Node1&#45;&gt;Node9 -->
<g id="edge3" class="edge">
<title>Node1&#45;&gt;Node9</title>
<path fill="none" stroke="midnightblue" d="M971.4,-129.92C888.27,-124.83 674.99,-110.43 498,-87 488.95,-85.8 479.37,-84.31 470.08,-82.75"/>
<polygon fill="midnightblue" stroke="midnightblue" points="470.6,-79.29 460.15,-81.03 469.41,-86.18 470.6,-79.29"/>
</g>
<!-- Node11 -->
<g id="node5" class="node">
<title>Node11</title>
<g id="a_node5"><a xlink:href="../../d4/d3d/geometry__check_8h.html" target="_top" xlink:title="Validity checks on the geometry of spinor fields that are passed as function parameters....">
<polygon fill="none" stroke="red" points="507,-62 507,-81 665,-81 665,-62 507,-62"/>
<text text-anchor="middle" x="586" y="-69" font-family="Helvetica,sans-Serif" font-size="10.00">Geometry/geometry_check.h</text>
</a>
</g>
</g>
<!-- Node1&#45;&gt;Node11 -->
<g id="edge4" class="edge">
<title>Node1&#45;&gt;Node11</title>
<path fill="none" stroke="midnightblue" d="M971.02,-128.14C908.39,-120.7 776.06,-103.65 665,-87 656.1,-85.67 646.7,-84.19 637.6,-82.71"/>
<polygon fill="midnightblue" stroke="midnightblue" points="637.93,-79.21 627.49,-81.03 636.79,-86.12 637.93,-79.21"/>
</g>
<!-- Node4 -->
<g id="node6" class="node">
<title>Node4</title>
<g id="a_node6"><a xlink:href="../../dc/d56/geometry__descriptor_8h.html" target="_top" xlink:title="Geometry descriptor struct, that contains all necessary information for multi&#45;node/ multi&#45;GPU calcula...">
<polygon fill="none" stroke="black" points="683,-62 683,-81 861,-81 861,-62 683,-62"/>
<text text-anchor="middle" x="772" y="-69" font-family="Helvetica,sans-Serif" font-size="10.00">Geometry/geometry_descriptor.h</text>
</a>
</g>
</g>
<!-- Node1&#45;&gt;Node4 -->
<g id="edge6" class="edge">
<title>Node1&#45;&gt;Node4</title>
<path fill="none" stroke="midnightblue" d="M973.33,-123.48C931.8,-112.96 861.11,-95.06 815.5,-83.51"/>
<polygon fill="midnightblue" stroke="midnightblue" points="816.16,-80.07 805.61,-81.01 814.44,-86.86 816.16,-80.07"/>
</g>
<!-- Node22 -->
<g id="node7" class="node">
<title>Node22</title>
<g id="a_node7"><a xlink:href="../../d3/d77/geometry__fuse_8h.html" target="_top" xlink:title="FIXME: Add docs.">
<polygon fill="none" stroke="black" points="879.5,-62 879.5,-81 1030.5,-81 1030.5,-62 879.5,-62"/>
<text text-anchor="middle" x="955" y="-69" font-family="Helvetica,sans-Serif" font-size="10.00">Geometry/geometry_fuse.h</text>
</a>
</g>
</g>
<!-- Node1&#45;&gt;Node22 -->
<g id="edge7" class="edge">
<title>Node1&#45;&gt;Node22</title>
<path fill="none" stroke="midnightblue" d="M999.55,-123.48C991.67,-114.46 979.06,-100.02 969.26,-88.81"/>
<polygon fill="midnightblue" stroke="midnightblue" points="971.65,-86.24 962.44,-81.01 966.38,-90.84 971.65,-86.24"/>
</g>
<!-- Node23 -->
<g id="node8" class="node">
<title>Node23</title>
<g id="a_node8"><a xlink:href="../../d6/d76/geometry__omp_8h.html" target="_top" xlink:title="This file contains useful macros that perform OpenMP reduction operations and are necessary to define...">
<polygon fill="none" stroke="red" points="979,-0.5 979,-19.5 1079,-19.5 1079,-0.5 979,-0.5"/>
<text text-anchor="middle" x="1029" y="-7.5" font-family="Helvetica,sans-Serif" font-size="10.00">geometry_omp.h</text>
</a>
</g>
</g>
<!-- Node1&#45;&gt;Node23 -->
<g id="edge13" class="edge">
<title>Node1&#45;&gt;Node23</title>
<path fill="none" stroke="midnightblue" d="M1015.75,-123.29C1023.56,-114.84 1034.45,-101.25 1039,-87 1045.12,-67.84 1040.53,-44.82 1035.74,-29.17"/>
<polygon fill="midnightblue" stroke="midnightblue" points="1039.04,-28 1032.52,-19.65 1032.41,-30.24 1039.04,-28"/>
</g>
<!-- Node25 -->
<g id="node9" class="node">
<title>Node25</title>
<g id="a_node9"><a xlink:href="../../d9/d46/geometry__init_8h.html" target="_top" xlink:title="Initialization functions, that determine all important parameters of the geometry,...">
<polygon fill="none" stroke="black" points="1087,-62 1087,-81 1233,-81 1233,-62 1087,-62"/>
<text text-anchor="middle" x="1160" y="-69" font-family="Helvetica,sans-Serif" font-size="10.00">Geometry/geometry_init.h</text>
</a>
</g>
</g>
<!-- Node1&#45;&gt;Node25 -->
<g id="edge9" class="edge">
<title>Node1&#45;&gt;Node25</title>
<path fill="none" stroke="midnightblue" d="M1028.92,-123.48C1055.05,-113.31 1098.91,-96.26 1128.63,-84.7"/>
<polygon fill="midnightblue" stroke="midnightblue" points="1130.07,-87.9 1138.12,-81.01 1127.53,-81.37 1130.07,-87.9"/>
</g>
<!-- Node26 -->
<g id="node10" class="node">
<title>Node26</title>
<g id="a_node10"><a xlink:href="../../d0/dd1/new__geometry_8h.html" target="_top" xlink:title="Functions needed for the new geometry implementation that will replace the current geometry in the fu...">
<polygon fill="none" stroke="red" points="1141.5,-0.5 1141.5,-19.5 1238.5,-19.5 1238.5,-0.5 1141.5,-0.5"/>
<text text-anchor="middle" x="1190" y="-7.5" font-family="Helvetica,sans-Serif" font-size="10.00">new_geometry.h</text>
</a>
</g>
</g>
<!-- Node1&#45;&gt;Node26 -->
<g id="edge15" class="edge">
<title>Node1&#45;&gt;Node26</title>
<path fill="none" stroke="midnightblue" d="M1042.67,-130.53C1102.05,-127.26 1217.12,-117.1 1242,-87 1250.78,-76.38 1247.73,-68.53 1242,-56 1236.22,-43.36 1224.95,-32.91 1214.37,-25.27"/>
<polygon fill="midnightblue" stroke="midnightblue" points="1216.04,-22.18 1205.78,-19.53 1212.15,-28 1216.04,-22.18"/>
</g>
<!-- Node30 -->
<g id="node11" class="node">
<title>Node30</title>
<g id="a_node11"><a xlink:href="../../de/d2e/geometry__gpu__init_8h.html" target="_top" xlink:title="Initialization functions, that determine all important parameters of the geometry,...">
<polygon fill="none" stroke="red" points="1289.5,-56.5 1289.5,-86.5 1428.5,-86.5 1428.5,-56.5 1289.5,-56.5"/>
<text text-anchor="start" x="1297.5" y="-74.5" font-family="Helvetica,sans-Serif" font-size="10.00">Geometry/geometry_gpu</text>
<text text-anchor="middle" x="1359" y="-63.5" font-family="Helvetica,sans-Serif" font-size="10.00">_init.h</text>
</a>
</g>
</g>
<!-- Node1&#45;&gt;Node30 -->
<g id="edge11" class="edge">
<title>Node1&#45;&gt;Node30</title>
<path fill="none" stroke="midnightblue" d="M1042.56,-126.08C1093.89,-117.53 1191.75,-101.17 1275,-87 1276.46,-86.75 1277.93,-86.5 1279.42,-86.25"/>
<polygon fill="midnightblue" stroke="midnightblue" points="1280.07,-89.69 1289.33,-84.55 1278.89,-82.79 1280.07,-89.69"/>
</g>
<!-- Node31 -->
<g id="node12" class="node">
<title>Node31</title>
<g id="a_node12"><a xlink:href="../../dd/d37/geometry__maskstate_8h_source.html" target="_top" xlink:title=" ">
<polygon fill="none" stroke="black" points="1447,-62 1447,-81 1629,-81 1629,-62 1447,-62"/>
<text text-anchor="middle" x="1538" y="-69" font-family="Helvetica,sans-Serif" font-size="10.00">Geometry/geometry_maskstate.h</text>
</a>
</g>
</g>
<!-- Node1&#45;&gt;Node31 -->
<g id="edge12" class="edge">
<title>Node1&#45;&gt;Node31</title>
<path fill="none" stroke="midnightblue" d="M1042.53,-128.77C1116.32,-121.97 1291.49,-105.26 1438,-87 1448.93,-85.64 1460.51,-84.07 1471.77,-82.48"/>
<polygon fill="midnightblue" stroke="midnightblue" points="1472.59,-85.9 1481.99,-81.02 1471.6,-78.97 1472.59,-85.9"/>
</g>
<!-- Node32 -->
<g id="node13" class="node">
<title>Node32</title>
<g id="a_node13"><a xlink:title=" ">
<polygon fill="none" stroke="#bfbfbf" points="1647,-62 1647,-81 1793,-81 1793,-62 1647,-62"/>
<text text-anchor="middle" x="1720" y="-69" font-family="Helvetica,sans-Serif" font-size="10.00">Geometry/gpu_geometry.h</text>
</a>
</g>
</g>
<!-- Node1&#45;&gt;Node32 -->
<g id="edge14" class="edge">
<title>Node1&#45;&gt;Node32</title>
<path fill="none" stroke="midnightblue" d="M1042.71,-130.75C1139.07,-127.11 1412.38,-114.92 1638,-87 1647.27,-85.85 1657.09,-84.36 1666.58,-82.77"/>
<polygon fill="midnightblue" stroke="midnightblue" points="1667.46,-86.17 1676.72,-81.02 1666.27,-79.27 1667.46,-86.17"/>
</g>
<!-- Node33 -->
<g id="node14" class="node">
<title>Node33</title>
<g id="a_node14"><a xlink:href="../../d7/df7/setup_8h.html" target="_top" xlink:title="Setup and finalize to run at the beginning and the end of every program.">
<polygon fill="none" stroke="black" points="1811,-62 1811,-81 1915,-81 1915,-62 1811,-62"/>
<text text-anchor="middle" x="1863" y="-69" font-family="Helvetica,sans-Serif" font-size="10.00">Geometry/setup.h</text>
</a>
</g>
</g>
<!-- Node1&#45;&gt;Node33 -->
<g id="edge16" class="edge">
<title>Node1&#45;&gt;Node33</title>
<path fill="none" stroke="midnightblue" d="M1042.88,-132.22C1155.43,-132.43 1511.32,-129.43 1802,-87 1808.43,-86.06 1815.18,-84.77 1821.75,-83.34"/>
<polygon fill="midnightblue" stroke="midnightblue" points="1822.9,-86.67 1831.86,-81.02 1821.33,-79.85 1822.9,-86.67"/>
</g>
<!-- Node11&#45;&gt;Node1 -->
<g id="edge5" class="edge">
<title>Node11&#45;&gt;Node1</title>
<path fill="none" stroke="midnightblue" d="M644.94,-81.03C657.56,-83.06 670.75,-85.16 683,-87 782.19,-101.87 898.35,-117.06 961.21,-125.44"/>
<polygon fill="midnightblue" stroke="midnightblue" points="960.83,-128.92 971.21,-126.77 961.76,-121.98 960.83,-128.92"/>
</g>
<!-- Node22&#45;&gt;Node23 -->
<g id="edge8" class="edge">
<title>Node22&#45;&gt;Node23</title>
<path fill="none" stroke="midnightblue" d="M965.6,-61.98C977.25,-52.61 996.19,-37.38 1010.33,-26.01"/>
<polygon fill="midnightblue" stroke="midnightblue" points="1012.82,-28.5 1018.42,-19.51 1008.43,-23.05 1012.82,-28.5"/>
</g>
<!-- Node25&#45;&gt;Node26 -->
<g id="edge10" class="edge">
<title>Node25&#45;&gt;Node26</title>
<path fill="none" stroke="midnightblue" d="M1164.3,-61.98C1168.66,-53.32 1175.56,-39.65 1181.1,-28.65"/>
<polygon fill="midnightblue" stroke="midnightblue" points="1184.33,-30.01 1185.71,-19.51 1178.08,-26.86 1184.33,-30.01"/>
</g>
</g>
</svg>
        <g id="navigator" transform="translate(0 0)" fill="#404254">
                <rect fill="#f2f5e9" fill-opacity="0.5" stroke="#606060" stroke-width=".5" x="0" y="0" width="60" height="60"/>
                <use id="zoomplus" xlink:href="#zoomPlus" x="17" y="9" onmousedown="handleZoom(evt,'in')"/>
                <use id="zoomminus" xlink:href="#zoomMin" x="42" y="9" onmousedown="handleZoom(evt,'out')"/>
                <use id="reset" xlink:href="#resetDef" x="30" y="36" onmousedown="handleReset()"/>
                <g id="arrowUp" xlink:href="#dirArrow" transform="translate(30 24)" onmousedown="handlePan(0,-1)">
                  <use xlink:href="#rim" fill="#404040">
                        <set attributeName="fill" to="#808080" begin="arrowUp.mouseover" end="arrowUp.mouseout"/>
                  </use>
                  <path fill="none" stroke="white" stroke-width="1.5" d="M0,-3.0v7 M-2.5,-0.5L0,-3.0L2.5,-0.5"/>
                </g>
                <g id="arrowRight" xlink:href="#dirArrow" transform="rotate(90) translate(36 -43)" onmousedown="handlePan(1,0)">
                  <use xlink:href="#rim" fill="#404040">
                        <set attributeName="fill" to="#808080" begin="arrowRight.mouseover" end="arrowRight.mouseout"/>
                  </use>
                  <path fill="none" stroke="white" stroke-width="1.5" d="M0,-3.0v7 M-2.5,-0.5L0,-3.0L2.5,-0.5"/>
                </g>
                <g id="arrowDown" xlink:href="#dirArrow" transform="rotate(180) translate(-30 -48)" onmousedown="handlePan(0,1)">
                  <use xlink:href="#rim" fill="#404040">
                        <set attributeName="fill" to="#808080" begin="arrowDown.mouseover" end="arrowDown.mouseout"/>
                  </use>
                  <path fill="none" stroke="white" stroke-width="1.5" d="M0,-3.0v7 M-2.5,-0.5L0,-3.0L2.5,-0.5"/>
                </g>
                <g id="arrowLeft" xlink:href="#dirArrow" transform="rotate(270) translate(-36 17)" onmousedown="handlePan(-1,0)">
                  <use xlink:href="#rim" fill="#404040">
                        <set attributeName="fill" to="#808080" begin="arrowLeft.mouseover" end="arrowLeft.mouseout"/>
                  </use>
                  <path fill="none" stroke="white" stroke-width="1.5" d="M0,-3.0v7 M-2.5,-0.5L0,-3.0L2.5,-0.5"/>
                </g>
        </g>
        <svg viewBox="0 0 15 15" width="100%" height="30px" preserveAspectRatio="xMaxYMin meet">
         <g id="arrow_out" transform="scale(0.3 0.3)">
          <a xlink:href="geometry_8h__incl_org.svg" target="_base">
           <rect id="button" ry="5" rx="5" y="6" x="6" height="38" width="38"
                fill="#f2f5e9" fill-opacity="0.5" stroke="#606060" stroke-width="1.0"/>
           <path id="arrow"
             d="M 11.500037,31.436501 C 11.940474,20.09759 22.043105,11.32322 32.158766,21.979434 L 37.068811,17.246167 C 37.068811,17.246167 37.088388,32 37.088388,32 L 22.160133,31.978069 C 22.160133,31.978069 26.997745,27.140456 26.997745,27.140456 C 18.528582,18.264221 13.291696,25.230495 11.500037,31.436501 z"
             style="fill:#404040;"/>
          </a>
         </g>
        </svg>
</svg>
