<?xml version="1.0" encoding="UTF-8" standalone="no"?>
<!DOCTYPE svg PUBLIC "-//W3C//DTD SVG 1.1//EN"
 "http://www.w3.org/Graphics/SVG/1.1/DTD/svg11.dtd">
<!-- Generated by graphviz version 2.43.0 (0)
 -->
<!-- Title: _box_t Pages: 1 -->
<svg width="121pt" height="97pt"
 viewBox="0.00 0.00 121.00 97.00" xmlns="http://www.w3.org/2000/svg" xmlns:xlink="http://www.w3.org/1999/xlink">
<g id="graph0" class="graph" transform="scale(1 1) rotate(0) translate(4 93)">
<title>_box_t</title>
<!-- Node1 -->
<g id="node1" class="node">
<title>Node1</title>
<g id="a_node1"><a xlink:title=" ">
<polygon fill="#bfbfbf" stroke="black" points="3,-1.5 3,-20.5 52,-20.5 52,-1.5 3,-1.5"/>
<text text-anchor="middle" x="27.5" y="-8.5" font-family="Helvetica,sans-Serif" font-size="10.00">_box_t</text>
</a>
</g>
</g>
<!-- Node1&#45;&gt;Node1 -->
<g id="edge2" class="edge">
<title>Node1&#45;&gt;Node1</title>
<path fill="none" stroke="#9a32cd" stroke-dasharray="5,2" d="M62.53,-16.58C67.03,-15.61 70,-13.75 70,-11 70,-6.48 62,-4.37 52.38,-4.65"/>
<polygon fill="#9a32cd" stroke="#9a32cd" points="62.09,-13.11 52.38,-17.35 62.62,-20.09 62.09,-13.11"/>
<text text-anchor="middle" x="91.5" y="-14" font-family="Helvetica,sans-Serif" font-size="10.00"> next</text>
<text text-anchor="middle" x="91.5" y="-3" font-family="Helvetica,sans-Serif" font-size="10.00">sendBox</text>
</g>
<!-- Node2 -->
<g id="node2" class="node">
<title>Node2</title>
<g id="a_node2"><a xlink:href="../../d2/dab/struct__coord4.html" target="_top" xlink:title=" ">
<polygon fill="none" stroke="#bfbfbf" points="0,-69.5 0,-88.5 55,-88.5 55,-69.5 0,-69.5"/>
<text text-anchor="middle" x="27.5" y="-76.5" font-family="Helvetica,sans-Serif" font-size="10.00">_coord4</text>
</a>
</g>
</g>
<!-- Node2&#45;&gt;Node1 -->
<g id="edge1" class="edge">
<title>Node2&#45;&gt;Node1</title>
<path fill="none" stroke="#9a32cd" stroke-dasharray="5,2" d="M27.5,-59.04C27.5,-46.47 27.5,-30.56 27.5,-20.84"/>
<polygon fill="#9a32cd" stroke="#9a32cd" points="24,-59.37 27.5,-69.37 31,-59.37 24,-59.37"/>
<text text-anchor="middle" x="44.5" y="-43" font-family="Helvetica,sans-Serif" font-size="10.00"> icoord</text>
</g>
</g>
</svg>
