<?xml version="1.0" encoding="UTF-8" standalone="no"?>
<!DOCTYPE svg PUBLIC "-//W3C//DTD SVG 1.1//EN"
 "http://www.w3.org/Graphics/SVG/1.1/DTD/svg11.dtd">
<!-- Generated by graphviz version 2.43.0 (0)
 -->
<!-- Title: _mon_list Pages: 1 -->
<svg width="119pt" height="95pt"
 viewBox="0.00 0.00 118.50 95.00" xmlns="http://www.w3.org/2000/svg" xmlns:xlink="http://www.w3.org/1999/xlink">
<g id="graph0" class="graph" transform="scale(1 1) rotate(0) translate(4 91)">
<title>_mon_list</title>
<!-- Node1 -->
<g id="node1" class="node">
<title>Node1</title>
<g id="a_node1"><a xlink:title=" ">
<polygon fill="#bfbfbf" stroke="black" points="3.5,-0.5 3.5,-19.5 67.5,-19.5 67.5,-0.5 3.5,-0.5"/>
<text text-anchor="middle" x="35.5" y="-7.5" font-family="Helvetica,sans-Serif" font-size="10.00">_mon_list</text>
</a>
</g>
</g>
<!-- Node1&#45;&gt;Node1 -->
<g id="edge2" class="edge">
<title>Node1&#45;&gt;Node1</title>
<path fill="none" stroke="#9a32cd" stroke-dasharray="5,2" d="M77.72,-15.07C82.45,-14.11 85.5,-12.42 85.5,-10 85.5,-6.12 77.68,-4.13 67.72,-4.01"/>
<polygon fill="#9a32cd" stroke="#9a32cd" points="77.35,-11.59 67.72,-15.99 78,-18.56 77.35,-11.59"/>
<text text-anchor="middle" x="98" y="-7.5" font-family="Helvetica,sans-Serif" font-size="10.00"> next</text>
</g>
<!-- Node2 -->
<g id="node2" class="node">
<title>Node2</title>
<g id="a_node2"><a xlink:href="../../dc/df2/struct__monomial.html" target="_top" xlink:title=" ">
<polygon fill="none" stroke="orangered" points="0,-67.5 0,-86.5 71,-86.5 71,-67.5 0,-67.5"/>
<text text-anchor="middle" x="35.5" y="-74.5" font-family="Helvetica,sans-Serif" font-size="10.00">_monomial</text>
</a>
</g>
</g>
<!-- Node2&#45;&gt;Node1 -->
<g id="edge1" class="edge">
<title>Node2&#45;&gt;Node1</title>
<path fill="none" stroke="#9a32cd" stroke-dasharray="5,2" d="M35.5,-57.04C35.5,-44.67 35.5,-29.12 35.5,-19.63"/>
<polygon fill="#9a32cd" stroke="#9a32cd" points="32,-57.23 35.5,-67.23 39,-57.23 32,-57.23"/>
<text text-anchor="middle" x="42" y="-41" font-family="Helvetica,sans-Serif" font-size="10.00"> m</text>
</g>
</g>
</svg>
