<?xml version="1.0" encoding="UTF-8" standalone="no"?>
<!DOCTYPE svg PUBLIC "-//W3C//DTD SVG 1.1//EN"
 "http://www.w3.org/Graphics/SVG/1.1/DTD/svg11.dtd">
<!-- Generated by graphviz version 2.43.0 (0)
 -->
<!-- Title: error_gpu.c Pages: 1 -->
<svg width="118pt" height="84pt"
 viewBox="0.00 0.00 118.00 84.00" xmlns="http://www.w3.org/2000/svg" xmlns:xlink="http://www.w3.org/1999/xlink">
<g id="graph0" class="graph" transform="scale(1 1) rotate(0) translate(4 80)">
<title>error_gpu.c</title>
<!-- Node1 -->
<g id="node1" class="node">
<title>Node1</title>
<g id="a_node1"><a xlink:title="Error checking on the GPU.">
<polygon fill="#bfbfbf" stroke="black" points="18.5,-56.5 18.5,-75.5 89.5,-75.5 89.5,-56.5 18.5,-56.5"/>
<text text-anchor="middle" x="54" y="-63.5" font-family="Helvetica,sans-Serif" font-size="10.00">error_gpu.c</text>
</a>
</g>
</g>
<!-- Node2 -->
<g id="node2" class="node">
<title>Node2</title>
<g id="a_node2"><a xlink:href="../../d3/d93/gpu_8h.html" target="_top" xlink:title="Basic gpu imports and structs. Include this in files that define GPU logic.">
<polygon fill="none" stroke="red" points="0,-0.5 0,-19.5 44,-19.5 44,-0.5 0,-0.5"/>
<text text-anchor="middle" x="22" y="-7.5" font-family="Helvetica,sans-Serif" font-size="10.00">gpu.h</text>
</a>
</g>
</g>
<!-- Node1&#45;&gt;Node2 -->
<g id="edge1" class="edge">
<title>Node1&#45;&gt;Node2</title>
<path fill="none" stroke="midnightblue" d="M48.72,-56.08C44.29,-48.61 37.84,-37.72 32.38,-28.52"/>
<polygon fill="midnightblue" stroke="midnightblue" points="35.29,-26.57 27.19,-19.75 29.27,-30.14 35.29,-26.57"/>
</g>
<!-- Node9 -->
<g id="node3" class="node">
<title>Node9</title>
<g id="a_node3"><a xlink:href="../../da/d41/error_8h_source.html" target="_top" xlink:title=" ">
<polygon fill="none" stroke="red" points="62,-0.5 62,-19.5 110,-19.5 110,-0.5 62,-0.5"/>
<text text-anchor="middle" x="86" y="-7.5" font-family="Helvetica,sans-Serif" font-size="10.00">error.h</text>
</a>
</g>
</g>
<!-- Node1&#45;&gt;Node9 -->
<g id="edge2" class="edge">
<title>Node1&#45;&gt;Node9</title>
<path fill="none" stroke="midnightblue" d="M59.28,-56.08C63.71,-48.61 70.16,-37.72 75.62,-28.52"/>
<polygon fill="midnightblue" stroke="midnightblue" points="78.73,-30.14 80.81,-19.75 72.71,-26.57 78.73,-30.14"/>
</g>
</g>
</svg>
