<?xml version="1.0" encoding="UTF-8" standalone="no"?>
<!DOCTYPE svg PUBLIC "-//W3C//DTD SVG 1.1//EN"
 "http://www.w3.org/Graphics/SVG/1.1/DTD/svg11.dtd">
<!-- Generated by graphviz version 2.43.0 (0)
 -->
<!-- Title: spinor_field.h Pages: 1 -->
<svg width="359pt" height="84pt"
 viewBox="0.00 0.00 358.50 84.00" xmlns="http://www.w3.org/2000/svg" xmlns:xlink="http://www.w3.org/1999/xlink">
<g id="graph0" class="graph" transform="scale(1 1) rotate(0) translate(4 80)">
<title>spinor_field.h</title>
<!-- Node1 -->
<g id="node1" class="node">
<title>Node1</title>
<g id="a_node1"><a xlink:title="The elementary site structures defined in suN.h are used in this file to define field structures that...">
<polygon fill="#bfbfbf" stroke="black" points="194,-56.5 194,-75.5 276,-75.5 276,-56.5 194,-56.5"/>
<text text-anchor="middle" x="235" y="-63.5" font-family="Helvetica,sans-Serif" font-size="10.00">spinor_field.h</text>
</a>
</g>
</g>
<!-- Node2 -->
<g id="node2" class="node">
<title>Node2</title>
<g id="a_node2"><a xlink:href="../../dc/d56/geometry__descriptor_8h.html" target="_top" xlink:title="Geometry descriptor struct, that contains all necessary information for multi&#45;node/ multi&#45;GPU calcula...">
<polygon fill="none" stroke="black" points="0,-0.5 0,-19.5 178,-19.5 178,-0.5 0,-0.5"/>
<text text-anchor="middle" x="89" y="-7.5" font-family="Helvetica,sans-Serif" font-size="10.00">Geometry/geometry_descriptor.h</text>
</a>
</g>
</g>
<!-- Node1&#45;&gt;Node2 -->
<g id="edge1" class="edge">
<title>Node1&#45;&gt;Node2</title>
<path fill="none" stroke="midnightblue" d="M211.87,-56.44C187.52,-47.44 148.99,-33.19 121.58,-23.05"/>
<polygon fill="midnightblue" stroke="midnightblue" points="122.62,-19.7 112.03,-19.52 120.19,-26.27 122.62,-19.7"/>
</g>
<!-- Node3 -->
<g id="node3" class="node">
<title>Node3</title>
<g id="a_node3"><a xlink:title=" ">
<polygon fill="none" stroke="#bfbfbf" points="196.5,-0.5 196.5,-19.5 273.5,-19.5 273.5,-0.5 196.5,-0.5"/>
<text text-anchor="middle" x="235" y="-7.5" font-family="Helvetica,sans-Serif" font-size="10.00">suN_types.h</text>
</a>
</g>
</g>
<!-- Node1&#45;&gt;Node3 -->
<g id="edge2" class="edge">
<title>Node1&#45;&gt;Node3</title>
<path fill="none" stroke="midnightblue" d="M235,-56.08C235,-49.01 235,-38.86 235,-29.99"/>
<polygon fill="midnightblue" stroke="midnightblue" points="238.5,-29.75 235,-19.75 231.5,-29.75 238.5,-29.75"/>
</g>
<!-- Node4 -->
<g id="node4" class="node">
<title>Node4</title>
<g id="a_node4"><a xlink:href="../../d4/d1a/hr__mpi_8h.html" target="_top" xlink:title="Setup for mpi.">
<polygon fill="none" stroke="red" points="291.5,-0.5 291.5,-19.5 350.5,-19.5 350.5,-0.5 291.5,-0.5"/>
<text text-anchor="middle" x="321" y="-7.5" font-family="Helvetica,sans-Serif" font-size="10.00">hr_mpi.h</text>
</a>
</g>
</g>
<!-- Node1&#45;&gt;Node4 -->
<g id="edge3" class="edge">
<title>Node1&#45;&gt;Node4</title>
<path fill="none" stroke="midnightblue" d="M248.82,-56.32C262.23,-47.9 282.82,-34.97 298.59,-25.07"/>
<polygon fill="midnightblue" stroke="midnightblue" points="300.61,-27.94 307.22,-19.65 296.89,-22.01 300.61,-27.94"/>
</g>
</g>
</svg>
