<?xml version="1.0" encoding="UTF-8" standalone="no"?>
<!DOCTYPE svg PUBLIC "-//W3C//DTD SVG 1.1//EN"
 "http://www.w3.org/Graphics/SVG/1.1/DTD/svg11.dtd">
<!-- Generated by graphviz version 2.43.0 (0)
 -->
<!-- Title: error.c Pages: 1 -->
<svg width="406pt" height="84pt"
 viewBox="0.00 0.00 405.50 84.00" xmlns="http://www.w3.org/2000/svg" xmlns:xlink="http://www.w3.org/1999/xlink">
<g id="graph0" class="graph" transform="scale(1 1) rotate(0) translate(4 80)">
<title>error.c</title>
<!-- Node1 -->
<g id="node1" class="node">
<title>Node1</title>
<g id="a_node1"><a xlink:title="Error handling functions.">
<polygon fill="#bfbfbf" stroke="black" points="151,-56.5 151,-75.5 198,-75.5 198,-56.5 151,-56.5"/>
<text text-anchor="middle" x="174.5" y="-63.5" font-family="Helvetica,sans-Serif" font-size="10.00">error.c</text>
</a>
</g>
</g>
<!-- Node2 -->
<g id="node2" class="node">
<title>Node2</title>
<g id="a_node2"><a xlink:title=" ">
<polygon fill="none" stroke="#bfbfbf" points="0,-0.5 0,-19.5 53,-19.5 53,-0.5 0,-0.5"/>
<text text-anchor="middle" x="26.5" y="-7.5" font-family="Helvetica,sans-Serif" font-size="10.00">stdlib.h</text>
</a>
</g>
</g>
<!-- Node1&#45;&gt;Node2 -->
<g id="edge1" class="edge">
<title>Node1&#45;&gt;Node2</title>
<path fill="none" stroke="midnightblue" d="M151.05,-56.44C126.37,-47.44 87.31,-33.19 59.52,-23.05"/>
<polygon fill="midnightblue" stroke="midnightblue" points="60.44,-19.66 49.84,-19.52 58.04,-26.23 60.44,-19.66"/>
</g>
<!-- Node3 -->
<g id="node3" class="node">
<title>Node3</title>
<g id="a_node3"><a xlink:title=" ">
<polygon fill="none" stroke="#bfbfbf" points="71.5,-0.5 71.5,-19.5 121.5,-19.5 121.5,-0.5 71.5,-0.5"/>
<text text-anchor="middle" x="96.5" y="-7.5" font-family="Helvetica,sans-Serif" font-size="10.00">stdio.h</text>
</a>
</g>
</g>
<!-- Node1&#45;&gt;Node3 -->
<g id="edge2" class="edge">
<title>Node1&#45;&gt;Node3</title>
<path fill="none" stroke="midnightblue" d="M161.97,-56.32C149.91,-47.98 131.47,-35.21 117.23,-25.35"/>
<polygon fill="midnightblue" stroke="midnightblue" points="119.22,-22.47 109,-19.65 115.23,-28.22 119.22,-22.47"/>
</g>
<!-- Node4 -->
<g id="node4" class="node">
<title>Node4</title>
<g id="a_node4"><a xlink:href="../../d1/d8c/logger_8h_source.html" target="_top" xlink:title=" ">
<polygon fill="none" stroke="red" points="140,-0.5 140,-19.5 209,-19.5 209,-0.5 140,-0.5"/>
<text text-anchor="middle" x="174.5" y="-7.5" font-family="Helvetica,sans-Serif" font-size="10.00">IO/logger.h</text>
</a>
</g>
</g>
<!-- Node1&#45;&gt;Node4 -->
<g id="edge3" class="edge">
<title>Node1&#45;&gt;Node4</title>
<path fill="none" stroke="midnightblue" d="M174.5,-56.08C174.5,-49.01 174.5,-38.86 174.5,-29.99"/>
<polygon fill="midnightblue" stroke="midnightblue" points="178,-29.75 174.5,-19.75 171,-29.75 178,-29.75"/>
</g>
<!-- Node6 -->
<g id="node5" class="node">
<title>Node6</title>
<g id="a_node5"><a xlink:href="../../d7/df7/setup_8h.html" target="_top" xlink:title="Setup and finalize to run at the beginning and the end of every program.">
<polygon fill="none" stroke="black" points="227.5,-0.5 227.5,-19.5 331.5,-19.5 331.5,-0.5 227.5,-0.5"/>
<text text-anchor="middle" x="279.5" y="-7.5" font-family="Helvetica,sans-Serif" font-size="10.00">Geometry/setup.h</text>
</a>
</g>
</g>
<!-- Node1&#45;&gt;Node6 -->
<g id="edge4" class="edge">
<title>Node1&#45;&gt;Node6</title>
<path fill="none" stroke="midnightblue" d="M191.37,-56.32C208.21,-47.66 234.31,-34.24 253.74,-24.25"/>
<polygon fill="midnightblue" stroke="midnightblue" points="255.38,-27.34 262.67,-19.65 252.18,-21.12 255.38,-27.34"/>
</g>
<!-- Node7 -->
<g id="node6" class="node">
<title>Node7</title>
<g id="a_node6"><a xlink:href="../../da/d41/error_8h_source.html" target="_top" xlink:title=" ">
<polygon fill="none" stroke="red" points="349.5,-0.5 349.5,-19.5 397.5,-19.5 397.5,-0.5 349.5,-0.5"/>
<text text-anchor="middle" x="373.5" y="-7.5" font-family="Helvetica,sans-Serif" font-size="10.00">error.h</text>
</a>
</g>
</g>
<!-- Node1&#45;&gt;Node7 -->
<g id="edge5" class="edge">
<title>Node1&#45;&gt;Node7</title>
<path fill="none" stroke="midnightblue" d="M198.14,-58.6C228.58,-50.36 283.37,-35.53 339.58,-20.25"/>
<polygon fill="midnightblue" stroke="midnightblue" points="340.62,-23.59 349.35,-17.59 338.78,-16.84 340.62,-23.59"/>
</g>
</g>
</svg>
