<?xml version="1.0" encoding="UTF-8" standalone="no"?>
<!DOCTYPE svg PUBLIC "-//W3C//DTD SVG 1.1//EN"
 "http://www.w3.org/Graphics/SVG/1.1/DTD/svg11.dtd">
<!-- Generated by graphviz version 2.43.0 (0)
 -->
<!-- Title: geometry_descriptor.h Pages: 1 -->
<svg width="279pt" height="140pt"
 viewBox="0.00 0.00 279.24 140.00" xmlns="http://www.w3.org/2000/svg" xmlns:xlink="http://www.w3.org/1999/xlink">
<g id="graph0" class="graph" transform="scale(1 1) rotate(0) translate(4 136)">
<title>geometry_descriptor.h</title>
<!-- Node1 -->
<g id="node1" class="node">
<title>Node1</title>
<g id="a_node1"><a xlink:title="Geometry descriptor struct, that contains all necessary information for multi&#45;node/ multi&#45;GPU calcula...">
<polygon fill="#bfbfbf" stroke="black" points="30.24,-112.5 30.24,-131.5 156.24,-131.5 156.24,-112.5 30.24,-112.5"/>
<text text-anchor="middle" x="93.24" y="-119.5" font-family="Helvetica,sans-Serif" font-size="10.00">geometry_descriptor.h</text>
</a>
</g>
</g>
<!-- Node2 -->
<g id="node2" class="node">
<title>Node2</title>
<g id="a_node2"><a xlink:href="../../dd/d29/eva__deflation_8h_source.html" target="_top" xlink:title=" ">
<polygon fill="none" stroke="red" points="61.24,-0.5 61.24,-19.5 153.24,-19.5 153.24,-0.5 61.24,-0.5"/>
<text text-anchor="middle" x="107.24" y="-7.5" font-family="Helvetica,sans-Serif" font-size="10.00">eva_deflation.h</text>
</a>
</g>
</g>
<!-- Node1&#45;&gt;Node2 -->
<g id="edge1" class="edge">
<title>Node1&#45;&gt;Node2</title>
<path fill="none" stroke="midnightblue" d="M52.16,-109.2C21.88,-98.26 -11.5,-80.05 4.24,-56 16.9,-36.65 39.91,-25.57 60.97,-19.25"/>
<polygon fill="midnightblue" stroke="midnightblue" points="51.22,-112.58 61.81,-112.5 53.48,-105.95 51.22,-112.58"/>
</g>
<!-- Node5 -->
<g id="node3" class="node">
<title>Node5</title>
<g id="a_node3"><a xlink:href="../../d4/d67/geometry_8h.html" target="_top" xlink:title="This file contains information on the geometry of the local lattice, block decomposed geometry,...">
<polygon fill="none" stroke="red" points="13.74,-56.5 13.74,-75.5 84.74,-75.5 84.74,-56.5 13.74,-56.5"/>
<text text-anchor="middle" x="49.24" y="-63.5" font-family="Helvetica,sans-Serif" font-size="10.00">geometry.h</text>
</a>
</g>
</g>
<!-- Node1&#45;&gt;Node5 -->
<g id="edge2" class="edge">
<title>Node1&#45;&gt;Node5</title>
<path fill="none" stroke="midnightblue" d="M79.5,-104.14C71.84,-94.74 62.6,-83.4 56.37,-75.75"/>
<polygon fill="midnightblue" stroke="midnightblue" points="76.94,-106.54 85.97,-112.08 82.37,-102.12 76.94,-106.54"/>
</g>
<!-- Node14 -->
<g id="node4" class="node">
<title>Node14</title>
<g id="a_node4"><a xlink:href="../../d2/d6b/max__eig_8h_source.html" target="_top" xlink:title=" ">
<polygon fill="none" stroke="red" points="103.24,-56.5 103.24,-75.5 171.24,-75.5 171.24,-56.5 103.24,-56.5"/>
<text text-anchor="middle" x="137.24" y="-63.5" font-family="Helvetica,sans-Serif" font-size="10.00">max_eig.h</text>
</a>
</g>
</g>
<!-- Node1&#45;&gt;Node14 -->
<g id="edge3" class="edge">
<title>Node1&#45;&gt;Node14</title>
<path fill="none" stroke="midnightblue" d="M106.97,-104.14C114.64,-94.74 123.87,-83.4 130.11,-75.75"/>
<polygon fill="midnightblue" stroke="midnightblue" points="104.11,-102.12 100.5,-112.08 109.53,-106.54 104.11,-102.12"/>
</g>
<!-- Node15 -->
<g id="node5" class="node">
<title>Node15</title>
<g id="a_node5"><a xlink:href="../../d3/ded/spinor__field_8h.html" target="_top" xlink:title="The elementary site structures defined in suN.h are used in this file to define field structures that...">
<polygon fill="none" stroke="red" points="189.24,-56.5 189.24,-75.5 271.24,-75.5 271.24,-56.5 189.24,-56.5"/>
<text text-anchor="middle" x="230.24" y="-63.5" font-family="Helvetica,sans-Serif" font-size="10.00">spinor_field.h</text>
</a>
</g>
</g>
<!-- Node1&#45;&gt;Node15 -->
<g id="edge4" class="edge">
<title>Node1&#45;&gt;Node15</title>
<path fill="none" stroke="midnightblue" d="M124.26,-108.77C149.99,-98.63 185.92,-84.47 208.63,-75.52"/>
<polygon fill="midnightblue" stroke="midnightblue" points="122.96,-105.52 114.94,-112.44 125.53,-112.03 122.96,-105.52"/>
</g>
<!-- Node15&#45;&gt;Node2 -->
<g id="edge5" class="edge">
<title>Node15&#45;&gt;Node2</title>
<path fill="none" stroke="midnightblue" d="M201.46,-52.37C178.43,-42.26 146.75,-28.35 126.63,-19.52"/>
<polygon fill="midnightblue" stroke="midnightblue" points="200.18,-55.63 210.75,-56.44 203,-49.22 200.18,-55.63"/>
</g>
</g>
</svg>
