<?xml version="1.0" encoding="UTF-8" standalone="no"?>
<!DOCTYPE svg PUBLIC "-//W3C//DTD SVG 1.1//EN"
 "http://www.w3.org/Graphics/SVG/1.1/DTD/svg11.dtd">
<!-- Generated by graphviz version 2.43.0 (0)
 -->
<!-- Title: gpu_info.c Pages: 1 -->
<svg width="316pt" height="84pt"
 viewBox="0.00 0.00 315.50 84.00" xmlns="http://www.w3.org/2000/svg" xmlns:xlink="http://www.w3.org/1999/xlink">
<g id="graph0" class="graph" transform="scale(1 1) rotate(0) translate(4 80)">
<title>gpu_info.c</title>
<!-- Node1 -->
<g id="node1" class="node">
<title>Node1</title>
<g id="a_node1"><a xlink:title="Prints information on available hardware and software on the cluster relating to GPUs.">
<polygon fill="#bfbfbf" stroke="black" points="108,-56.5 108,-75.5 175,-75.5 175,-56.5 108,-56.5"/>
<text text-anchor="middle" x="141.5" y="-63.5" font-family="Helvetica,sans-Serif" font-size="10.00">gpu_info.c</text>
</a>
</g>
</g>
<!-- Node2 -->
<g id="node2" class="node">
<title>Node2</title>
<g id="a_node2"><a xlink:href="../../dc/dac/io_8h_source.html" target="_top" xlink:title=" ">
<polygon fill="none" stroke="red" points="0,-0.5 0,-19.5 35,-19.5 35,-0.5 0,-0.5"/>
<text text-anchor="middle" x="17.5" y="-7.5" font-family="Helvetica,sans-Serif" font-size="10.00">io.h</text>
</a>
</g>
</g>
<!-- Node1&#45;&gt;Node2 -->
<g id="edge1" class="edge">
<title>Node1&#45;&gt;Node2</title>
<path fill="none" stroke="midnightblue" d="M121.85,-56.44C100.94,-47.34 67.71,-32.86 44.38,-22.71"/>
<polygon fill="midnightblue" stroke="midnightblue" points="45.62,-19.43 35.05,-18.64 42.82,-25.84 45.62,-19.43"/>
</g>
<!-- Node30 -->
<g id="node3" class="node">
<title>Node30</title>
<g id="a_node3"><a xlink:href="../../da/d41/error_8h_source.html" target="_top" xlink:title=" ">
<polygon fill="none" stroke="red" points="53.5,-0.5 53.5,-19.5 101.5,-19.5 101.5,-0.5 53.5,-0.5"/>
<text text-anchor="middle" x="77.5" y="-7.5" font-family="Helvetica,sans-Serif" font-size="10.00">error.h</text>
</a>
</g>
</g>
<!-- Node1&#45;&gt;Node30 -->
<g id="edge2" class="edge">
<title>Node1&#45;&gt;Node30</title>
<path fill="none" stroke="midnightblue" d="M131.22,-56.32C121.66,-48.26 107.22,-36.08 95.72,-26.37"/>
<polygon fill="midnightblue" stroke="midnightblue" points="97.87,-23.61 87.97,-19.83 93.36,-28.96 97.87,-23.61"/>
</g>
<!-- Node25 -->
<g id="node4" class="node">
<title>Node25</title>
<g id="a_node4"><a xlink:href="../../d3/d93/gpu_8h.html" target="_top" xlink:title="Basic gpu imports and structs. Include this in files that define GPU logic.">
<polygon fill="none" stroke="red" points="119.5,-0.5 119.5,-19.5 163.5,-19.5 163.5,-0.5 119.5,-0.5"/>
<text text-anchor="middle" x="141.5" y="-7.5" font-family="Helvetica,sans-Serif" font-size="10.00">gpu.h</text>
</a>
</g>
</g>
<!-- Node1&#45;&gt;Node25 -->
<g id="edge3" class="edge">
<title>Node1&#45;&gt;Node25</title>
<path fill="none" stroke="midnightblue" d="M141.5,-56.08C141.5,-49.01 141.5,-38.86 141.5,-29.99"/>
<polygon fill="midnightblue" stroke="midnightblue" points="145,-29.75 141.5,-19.75 138,-29.75 145,-29.75"/>
</g>
<!-- Node9 -->
<g id="node5" class="node">
<title>Node9</title>
<g id="a_node5"><a xlink:title=" ">
<polygon fill="none" stroke="#bfbfbf" points="181.5,-0.5 181.5,-19.5 225.5,-19.5 225.5,-0.5 181.5,-0.5"/>
<text text-anchor="middle" x="203.5" y="-7.5" font-family="Helvetica,sans-Serif" font-size="10.00">mpi.h</text>
</a>
</g>
</g>
<!-- Node1&#45;&gt;Node9 -->
<g id="edge4" class="edge">
<title>Node1&#45;&gt;Node9</title>
<path fill="none" stroke="midnightblue" d="M151.46,-56.32C160.63,-48.34 174.44,-36.31 185.53,-26.65"/>
<polygon fill="midnightblue" stroke="midnightblue" points="188.12,-29.04 193.36,-19.83 183.52,-23.76 188.12,-29.04"/>
</g>
<!-- Node33 -->
<g id="node6" class="node">
<title>Node33</title>
<g id="a_node6"><a xlink:title=" ">
<polygon fill="none" stroke="#bfbfbf" points="243.5,-0.5 243.5,-19.5 307.5,-19.5 307.5,-0.5 243.5,-0.5"/>
<text text-anchor="middle" x="275.5" y="-7.5" font-family="Helvetica,sans-Serif" font-size="10.00">mpi&#45;ext.h</text>
</a>
</g>
</g>
<!-- Node1&#45;&gt;Node33 -->
<g id="edge5" class="edge">
<title>Node1&#45;&gt;Node33</title>
<path fill="none" stroke="midnightblue" d="M162.73,-56.44C184.88,-47.52 219.82,-33.44 244.94,-23.32"/>
<polygon fill="midnightblue" stroke="midnightblue" points="246.4,-26.5 254.37,-19.52 243.78,-20.01 246.4,-26.5"/>
</g>
</g>
</svg>
