<?xml version="1.0" encoding="UTF-8" standalone="no"?>
<!DOCTYPE svg PUBLIC "-//W3C//DTD SVG 1.1//EN"
 "http://www.w3.org/Graphics/SVG/1.1/DTD/svg11.dtd">
<!-- Generated by graphviz version 2.43.0 (0)
 -->
<!-- Title: _block_info Pages: 1 -->
<svg width="141pt" height="99pt"
 viewBox="0.00 0.00 141.00 99.00" xmlns="http://www.w3.org/2000/svg" xmlns:xlink="http://www.w3.org/1999/xlink">
<g id="graph0" class="graph" transform="scale(1 1) rotate(0) translate(4 95)">
<title>_block_info</title>
<!-- Node1 -->
<g id="node1" class="node">
<title>Node1</title>
<g id="a_node1"><a xlink:title=" ">
<polygon fill="#bfbfbf" stroke="black" points="0,-1.5 0,-20.5 72,-20.5 72,-1.5 0,-1.5"/>
<text text-anchor="middle" x="36" y="-8.5" font-family="Helvetica,sans-Serif" font-size="10.00">_block_info</text>
</a>
</g>
</g>
<!-- Node1&#45;&gt;Node1 -->
<g id="edge3" class="edge">
<title>Node1&#45;&gt;Node1</title>
<path fill="none" stroke="#9a32cd" stroke-dasharray="5,2" d="M82.21,-16.26C86.96,-15.22 90,-13.47 90,-11 90,-7.05 82.22,-4.93 72.09,-4.66"/>
<polygon fill="#9a32cd" stroke="#9a32cd" points="81.66,-12.8 72.09,-17.34 82.4,-19.76 81.66,-12.8"/>
<text text-anchor="middle" x="111.5" y="-14" font-family="Helvetica,sans-Serif" font-size="10.00"> receiver</text>
<text text-anchor="middle" x="111.5" y="-3" font-family="Helvetica,sans-Serif" font-size="10.00">senders</text>
</g>
<!-- Node2 -->
<g id="node2" class="node">
<title>Node2</title>
<g id="a_node2"><a xlink:href="../../d9/d2a/struct__site__info.html" target="_top" xlink:title=" ">
<polygon fill="none" stroke="#bfbfbf" points="4,-70.5 4,-89.5 68,-89.5 68,-70.5 4,-70.5"/>
<text text-anchor="middle" x="36" y="-77.5" font-family="Helvetica,sans-Serif" font-size="10.00">_site_info</text>
</a>
</g>
</g>
<!-- Node2&#45;&gt;Node1 -->
<g id="edge1" class="edge">
<title>Node2&#45;&gt;Node1</title>
<path fill="none" stroke="#9a32cd" stroke-dasharray="5,2" d="M36,-60.02C36,-47.03 36,-30.44 36,-20.55"/>
<polygon fill="#9a32cd" stroke="#9a32cd" points="32.5,-60.24 36,-70.24 39.5,-60.24 32.5,-60.24"/>
<text text-anchor="middle" x="49" y="-43" font-family="Helvetica,sans-Serif" font-size="10.00"> start</text>
</g>
<!-- Node2&#45;&gt;Node2 -->
<g id="edge2" class="edge">
<title>Node2&#45;&gt;Node2</title>
<path fill="none" stroke="#9a32cd" stroke-dasharray="5,2" d="M78.22,-85.38C82.95,-84.37 86,-82.57 86,-80 86,-75.88 78.18,-73.76 68.22,-73.63"/>
<polygon fill="#9a32cd" stroke="#9a32cd" points="77.83,-81.9 68.22,-86.37 78.52,-88.87 77.83,-81.9"/>
<text text-anchor="middle" x="104.5" y="-83" font-family="Helvetica,sans-Serif" font-size="10.00"> copies</text>
<text text-anchor="middle" x="104.5" y="-72" font-family="Helvetica,sans-Serif" font-size="10.00">original</text>
</g>
</g>
</svg>
